<?xml version="1.0" standalone="no"?><!DOCTYPE svg PUBLIC "-//W3C//DTD SVG 1.1//EN" "http://www.w3.org/Graphics/SVG/1.1/DTD/svg11.dtd"><svg t="1614854220652" class="icon" viewBox="0 0 1024 1024" version="1.1" xmlns="http://www.w3.org/2000/svg" p-id="6802" xmlns:xlink="http://www.w3.org/1999/xlink" width="200" height="200"><defs><style type="text/css"></style></defs><path d="M925.1 339.02H103.48c-0.55 0-1-0.45-1-1V172.98c0-0.55 0.45-1 1-1H925.1c0.55 0 1 0.45 1 1v165.04c0 0.55-0.45 1-1 1zM137.27 385.81v453.57c0 20.2 16.53 36.73 36.74 36.73h680.56c20.2 0 36.73-16.53 36.73-36.73V385.81H137.27z m520.65 175.85c0 15.22-12.46 27.68-27.68 27.68H398.33c-15.22 0-27.68-12.46-27.68-27.68v-52.52c0-15.22 12.46-27.68 27.68-27.68h231.91c15.23 0 27.68 12.46 27.68 27.68v52.52z" p-id="6803" fill="#cdcdcd"></path></svg>