<svg t="1607589751542" class="icon" viewBox="0 0 1024 1024" version="1.1" xmlns="http://www.w3.org/2000/svg" p-id="7970" xmlns:xlink="http://www.w3.org/1999/xlink" width="200" height="200"><defs><style type="text/css"></style></defs><path d="M304.39168 1.75104c-0.96256 0.96256-2.22976 1.74848-2.82112 1.74848a1.0752 1.0752 0 0 0-1.07008 1.07264c0 1.38752-3.54048 4.928-4.928 4.928a1.0752 1.0752 0 0 0-1.07264 1.07008c0 1.39008-3.54048 4.93056-4.928 4.93056-0.5888 0-1.07264 0.4608-1.07264 1.024 0 0.5632-1.31584 2.36288-2.92608 3.99872-1.61024 1.6384-2.28608 2.07616-1.50016 0.97536 1.31328-1.84064 1.29024-1.89184-0.31232-0.63488-0.95488 0.75008-1.52832 1.7024-1.27232 2.11456 0.5632 0.91648-2.93376 4.24448-3.67616 3.49952-0.28928-0.28928-1.15456 0.27136-1.92 1.24672-1.28768 1.64352-1.24416 1.66912 0.60672 0.34816 1.1008-0.78592 0.66304-0.11008-0.97536 1.50016-1.63584 1.61024-3.43552 2.92608-3.99872 2.92608-0.5632 0-1.024 0.48384-1.024 1.07264 0 1.38752-3.54048 4.928-4.93056 4.928a1.0752 1.0752 0 0 0-1.07008 1.07264c0 1.38752-3.54048 4.928-4.928 4.928a1.0752 1.0752 0 0 0-1.07264 1.07008c0 1.36704-3.51488 4.9152-4.928 4.97408-0.5888 0.0256-0.97792 0.53504-0.86016 1.13152 0.1152 0.59648-0.67328 1.88416-1.75104 2.85952-1.07776 0.97536-1.96096 1.42336-1.96096 0.99584 0-0.42752-0.66816-0.22016-1.48736 0.45824-0.8192 0.68096-1.28 1.57696-1.024 1.98912 0.5248 0.84992-3.34592 4.65664-4.34176 4.27008-0.35584-0.13568-0.64512 0.12032-0.64512 0.57344 0 1.19296-3.6736 4.67712-4.93056 4.67712a1.0752 1.0752 0 0 0-1.07008 1.07264c0 0.5888-0.86784 1.93792-1.93024 3.00032-1.05984 1.05984-2.40896 1.92768-2.99776 1.92768a1.0752 1.0752 0 0 0-1.07264 1.07008c0 0.59136-0.86784 1.94048-1.92768 3.00032-1.0624 1.0624-2.41152 1.93024-3.00032 1.93024-0.5888 0-1.07264 0.4608-1.07264 1.024 0 0.5632-1.31584 2.36288-2.92608 3.99872-1.61024 1.6384-2.28608 2.07616-1.50016 0.97536 1.31328-1.84064 1.29024-1.89184-0.31232-0.63488-0.95488 0.75008-1.52832 1.7024-1.27232 2.11456 0.5632 0.91648-2.93376 4.24448-3.67616 3.49952-0.28928-0.28928-1.15456 0.27136-1.92 1.24672-1.28768 1.64352-1.24416 1.66912 0.60672 0.34816 1.1008-0.78592 0.66304-0.11008-0.97536 1.50016-1.63584 1.61024-3.43552 2.92608-3.99872 2.92608-0.5632 0-1.024 0.48384-1.024 1.07264 0 1.38752-3.54048 4.928-4.93056 4.928a1.0752 1.0752 0 0 0-1.07008 1.07264c0 1.38752-3.54048 4.928-4.928 4.928a1.0752 1.0752 0 0 0-1.07264 1.07008c0 1.36704-3.51488 4.9152-4.928 4.97408-0.5888 0.0256-0.97792 0.53504-0.86016 1.13152 0.1152 0.59648-0.67328 1.88416-1.75104 2.85952-1.07776 0.97536-1.96096 1.42336-1.96096 0.99584 0-0.42752-0.66816-0.22016-1.48736 0.45824-0.8192 0.68096-1.28 1.57696-1.024 1.98912 0.52992 0.86016-2.48064 3.84256-3.98848 3.95008-0.5504 0.0384-0.9984 0.44032-0.9984 0.89344 0 1.19296-3.6736 4.67712-4.93056 4.67712a1.0752 1.0752 0 0 0-1.07008 1.07264c0 0.5888-0.86784 1.93792-1.93024 3.00032-1.05984 1.05984-2.40896 1.92768-2.99776 1.92768a1.0752 1.0752 0 0 0-1.07264 1.07008c0 0.59136-0.86784 1.94048-1.92768 3.00032-1.0624 1.0624-2.41152 1.93024-3.00032 1.93024-0.5888 0-1.07264 0.4608-1.07264 1.024 0 0.5632-1.31584 2.36288-2.92608 3.99872-1.61024 1.6384-2.28608 2.07616-1.50016 0.97536 1.31328-1.84064 1.29024-1.89184-0.31232-0.63488-0.95488 0.75008-1.52832 1.7024-1.27232 2.11456 0.5632 0.91648-2.93376 4.24448-3.67616 3.49952-0.28928-0.28928-1.15456 0.27136-1.92 1.24672-1.28768 1.64352-1.24416 1.66912 0.60672 0.34816 1.1008-0.78592 0.66304-0.11008-0.97536 1.50016-1.63584 1.61024-3.43552 2.92608-3.99872 2.92608-0.5632 0-1.024 0.48384-1.024 1.07264 0 0.5888-0.86784 1.93792-1.93024 3.00032-1.05984 1.05984-2.40896 1.92768-3.00032 1.92768a1.0752 1.0752 0 0 0-1.07008 1.07264c0 0.5888-0.86784 1.93792-1.92768 2.99776-1.0624 1.0624-2.41152 1.93024-3.00032 1.93024a1.0752 1.0752 0 0 0-1.07264 1.07008c0 1.36704-3.51488 4.9152-4.928 4.97408-0.5888 0.0256-0.97792 0.53504-0.86016 1.13152 0.1152 0.59648-0.67328 1.88416-1.75104 2.85952-1.07776 0.97536-1.96096 1.42336-1.96096 0.99584 0-0.42752-0.66816-0.22016-1.48736 0.45824-0.8192 0.68096-1.28 1.57696-1.024 1.98912 0.5248 0.84992-3.34592 4.65664-4.34176 4.27008-0.35584-0.13568-0.64512 0.12032-0.64512 0.57344 0 1.19296-3.6736 4.67712-4.93056 4.67712a1.0752 1.0752 0 0 0-1.07008 1.07264c0 0.5888-0.86784 1.93792-1.93024 3.00032-1.05984 1.05984-2.40896 1.92768-2.99776 1.92768a1.0752 1.0752 0 0 0-1.07264 1.07008c0 1.39008-3.54048 4.93056-4.928 4.93056-0.5888 0-1.07264 0.4608-1.07264 1.024 0 0.5632-1.31584 2.36288-2.92608 3.99872-1.61024 1.6384-2.28608 2.07616-1.50016 0.97536 1.31328-1.84064 1.29024-1.89184-0.31232-0.63488-0.95488 0.75008-1.52832 1.7024-1.27232 2.11456 0.5632 0.91648-2.93376 4.24448-3.67616 3.49952-0.28928-0.28928-1.15456 0.27136-1.92 1.24672-1.28768 1.64352-1.24416 1.66912 0.60672 0.34816 1.1008-0.78592 0.66304-0.11008-0.97536 1.50016-1.63584 1.61024-3.43552 2.92608-3.99872 2.92608-0.5632 0-1.024 0.48384-1.024 1.07264 0 1.38752-3.54048 4.928-4.93056 4.928a1.0752 1.0752 0 0 0-1.07008 1.07264c0 0.5888-0.86784 1.93792-1.92768 2.99776-1.0624 1.0624-2.41152 1.93024-3.00032 1.93024a1.0752 1.0752 0 0 0-1.07264 1.07008c0 1.36704-3.51488 4.9152-4.928 4.97408-0.5888 0.0256-0.97792 0.53504-0.86016 1.13152 0.1152 0.59648-0.67328 1.88416-1.75104 2.85952-1.07776 0.97536-1.96096 1.42336-1.96096 0.99584 0-0.42752-0.66816-0.22016-1.48736 0.45824-0.8192 0.68096-1.28 1.57696-1.024 1.98912 0.52992 0.86016-2.48064 3.84256-3.98848 3.95008-0.5504 0.0384-0.9984 0.44032-0.9984 0.89344 0 1.19296-3.6736 4.67712-4.93056 4.67712a1.0752 1.0752 0 0 0-1.07008 1.07264c0 1.38752-3.54048 4.928-4.928 4.928a1.0752 1.0752 0 0 0-1.07264 1.07008c0 1.39008-3.54048 4.93056-4.928 4.93056-0.5888 0-1.07264 0.4608-1.07264 1.024 0 0.5632-1.31584 2.36288-2.92608 3.99872-1.61024 1.6384-2.28608 2.07616-1.50016 0.97536 1.31328-1.84064 1.29024-1.89184-0.31232-0.63488-0.95488 0.75008-1.52832 1.7024-1.27232 2.11456 0.5632 0.91648-2.93376 4.24448-3.67616 3.49952-0.28928-0.28928-1.15456 0.27136-1.92 1.24672-1.28768 1.64352-1.24416 1.66912 0.60672 0.34816 1.1008-0.78592 0.66304-0.11008-0.97536 1.50016-1.63584 1.61024-3.43552 2.92608-3.99872 2.92608-0.5632 0-1.024 0.48384-1.024 1.07264 0 1.38752-3.54048 4.928-4.93056 4.928a1.0752 1.0752 0 0 0-1.07008 1.07264c0 1.38752-3.54048 4.928-4.928 4.928a1.0752 1.0752 0 0 0-1.07264 1.07008c0 0.59136-0.78592 1.85856-1.74848 2.82112-1.66144 1.66144-1.75104 20.17536-1.75104 360.68096V1024h614.99904v-102.99904h-512V308.00128H308.00128V102.99904h408v307.00032h104V0H563.072c-243.36128 0-257.02144 0.09216-258.68032 1.75104m411.6096 612.2496v102.00064H512v104h204.00128V1024h104V820.00128H1024v-104H820.00128V512h-104v102.00064" fill="#dbdbdb" p-id="7971"></path></svg>