<svg t="1607589606014" class="icon" viewBox="0 0 1024 1024" version="1.1" xmlns="http://www.w3.org/2000/svg" p-id="6200" xmlns:xlink="http://www.w3.org/1999/xlink" width="200" height="200"><defs><style type="text/css"></style></defs><path d="M864 608H160a128 128 0 0 0-128 128v64a128 128 0 0 0 128 128h704a128 128 0 0 0 128-128v-64a128 128 0 0 0-128-128z m-224 240a72 72 0 1 1 72-72A72 72 0 0 1 640 848z m184 0A72 72 0 1 1 896 776a72 72 0 0 1-72 72zM224 316.16C320 224 419.84 179.2 524.8 179.2s209.6 48 305.28 142.72A48 48 0 1 0 896 253.76C784.96 142.4 656 83.2 524.8 83.2S269.44 139.84 160 247.36a48 48 0 0 0 64 68.8z m45.76 112.96a48 48 0 0 0 64 70.08c122.24-113.92 261.76-111.04 381.76 5.12a48 48 0 1 0 66.88-69.12A375.68 375.68 0 0 0 524.8 320a372.8 372.8 0 0 0-253.76 109.12z" fill="#dbdbdb" p-id="6201"></path></svg>