<?xml version="1.0" encoding="UTF-8" standalone="no"?>
<svg
   xmlns:dc="http://purl.org/dc/elements/1.1/"
   xmlns:cc="http://creativecommons.org/ns#"
   xmlns:rdf="http://www.w3.org/1999/02/22-rdf-syntax-ns#"
   xmlns:svg="http://www.w3.org/2000/svg"
   xmlns="http://www.w3.org/2000/svg"
   xmlns:sodipodi="http://sodipodi.sourceforge.net/DTD/sodipodi-0.dtd"
   xmlns:inkscape="http://www.inkscape.org/namespaces/inkscape"
   t="1618230325632"
   class="icon"
   viewBox="0 0 81.92 81.92"
   version="1.1"
   p-id="3437"
   width="16"
   height="16"
   id="svg8"
   sodipodi:docname="command_createProject.svg"
   inkscape:version="1.0.1 (3bc2e813f5, 2020-09-07)">
  <metadata
     id="metadata12">
    <rdf:RDF>
      <cc:Work
         rdf:about="">
        <dc:format>image/svg+xml</dc:format>
        <dc:type
           rdf:resource="http://purl.org/dc/dcmitype/StillImage" />
        <dc:title></dc:title>
      </cc:Work>
    </rdf:RDF>
  </metadata>
  <sodipodi:namedview
     pagecolor="#ffffff"
     bordercolor="#666666"
     borderopacity="1"
     objecttolerance="10"
     gridtolerance="10"
     guidetolerance="10"
     inkscape:pageopacity="0"
     inkscape:pageshadow="2"
     inkscape:window-width="1920"
     inkscape:window-height="1001"
     id="namedview10"
     showgrid="false"
     inkscape:zoom="14.7"
     inkscape:cx="25.489103"
     inkscape:cy="-0.026368658"
     inkscape:window-x="-9"
     inkscape:window-y="-9"
     inkscape:window-maximized="1"
     inkscape:current-layer="svg8" />
  <defs
     id="defs4">
    <style
       type="text/css"
       id="style2" />
  </defs>
  <path
     d="M 73.579574,42.96622 V 26.145597 A 9.5898653,9.5898653 0 0 0 63.98971,16.555732 H 41.463116 l -3.31234,-5.02509 A 11.005329,11.005329 0 0 0 29.213023,6.9658664 H 14.375583 A 9.6301428,9.6301428 0 0 0 6.1532321,11.626541 l -4.0910366,6.808805 a 9.6416501,9.6416501 0 0 0 -1.36559686,4.92919 V 58.751139 A 9.5898653,9.5898653 0 0 0 10.286464,68.341004 H 48.202873 A 18.201564,18.201564 0 1 0 73.579574,42.96622 Z M 10.286464,62.587084 A 3.8359461,3.8359461 0 0 1 6.4505179,58.751139 V 23.364536 a 3.7918327,3.7918327 0 0 1 0.5466222,-1.956332 l 4.0891189,-6.827985 a 3.8474539,3.8474539 0 0 1 3.289324,-1.860434 h 14.83744 a 5.4029301,5.4029301 0 0 1 4.089118,1.917973 l 3.835946,5.811458 a 4.8332921,4.8332921 0 0 0 3.835946,1.860435 H 63.98971 a 3.8359461,3.8359461 0 0 1 3.835946,3.835946 V 40.223519 A 18.807644,18.807644 0 0 0 63.030723,39.571408 18.15745,18.15745 0 0 0 45.47168,62.587084 Z m 52.744259,7.671893 A 12.466824,12.466824 0 1 1 75.497549,57.792152 12.466824,12.466824 0 0 1 63.030723,70.258977 Z M 68.78464,54.915192 h -2.876957 v -2.876959 a 2.87696,2.87696 0 0 0 -5.75392,0 v 2.876959 h -2.87696 a 2.87696,2.87696 0 0 0 0,5.75392 h 2.87696 v 2.876959 a 2.87696,2.87696 0 0 0 5.75392,0 v -2.876959 h 2.876957 a 2.87696,2.87696 0 0 0 0,-5.75392 z"
     p-id="3438"
     fill="#dbdbdb"
     id="path6"
     style="stroke-width:0.0674346" />
</svg>
