<svg width="16" height="16" viewBox="0 0 16 16" fill="none" xmlns="http://www.w3.org/2000/svg">
<path fill-rule="evenodd" clip-rule="evenodd" d="M2.5 8C2.5 4.96243 4.96243 2.5 8 2.5C9.3152 2.5 10.5221 2.96116 11.4686 3.73139L10.4276 4.77239C10.3436 4.85638 10.4031 5 10.5219 5H13.4C13.4737 5 13.5333 4.94031 13.5333 4.86667V1.98856C13.5333 1.86977 13.3897 1.81029 13.3057 1.89428L12.1789 3.02115C11.0493 2.07219 9.59107 1.5 8 1.5C4.41015 1.5 1.5 4.41015 1.5 8C1.5 11.5899 4.41015 14.5 8 14.5C11.4216 14.5 14.2257 11.8562 14.4811 8.5C14.502 8.22467 14.2761 8 14 8C13.7239 8 13.5024 8.2246 13.4776 8.4996C13.2252 11.3031 10.8691 13.5 8 13.5C4.96243 13.5 2.5 11.0375 2.5 8Z" fill="#CDCDCD"/>
</svg>
