<svg width="24" height="24" viewBox="0 0 24 24" fill="none" xmlns="http://www.w3.org/2000/svg">
<path d="M15.25 15.3571C14.8358 15.3571 14.5 15.6929 14.5 16.1071C14.5 16.5214 14.8358 16.8571 15.25 16.8571H16.75V18.3571C16.75 18.7714 17.0858 19.1071 17.5 19.1071C17.9142 19.1071 18.25 18.7714 18.25 18.3571V16.8571H19.75C20.1642 16.8571 20.5 16.5214 20.5 16.1071C20.5 15.6929 20.1642 15.3571 19.75 15.3571H18.25V13.8571C18.25 13.4429 17.9142 13.1071 17.5 13.1071C17.0858 13.1071 16.75 13.4429 16.75 13.8571V15.3571H15.25Z" fill="#CDCDCD"/>
<path fill-rule="evenodd" clip-rule="evenodd" d="M4.30768 7.5L4.13062 4.62284C4.05981 3.47214 4.97396 2.5 6.12685 2.5H7.42639C7.80123 2.5 8.16853 2.60534 8.48639 2.804L10.9568 4.348C11.1157 4.44733 11.2994 4.5 11.4868 4.5H17.8493C19.011 4.5 19.9282 5.48642 19.844 6.64507L19.7818 7.5H19.8402C21.0053 7.5 21.9237 8.4918 21.8344 9.65339L21.6259 12.363C22.4811 13.3325 23 14.6056 23 16C23 19.0376 20.5376 21.5 17.5 21.5C16.3226 21.5 15.2316 21.13 14.3369 20.5H4.85206C3.80699 20.5 2.93811 19.6954 2.85795 18.6534L2.16565 9.65339C2.07629 8.49181 2.99474 7.5 4.15976 7.5H4.30768ZM18.3479 6.53627L18.2778 7.5H5.81052L5.62779 4.53071C5.61009 4.24303 5.83863 4 6.12685 4H7.42639C7.5201 4 7.61193 4.02633 7.69139 4.076L10.1618 5.62C10.5591 5.86833 11.0182 6 11.4868 6H17.8493C18.1397 6 18.369 6.24661 18.3479 6.53627ZM12.8895 19C12.3269 18.1372 12 17.1068 12 16C12 12.9624 14.4624 10.5 17.5 10.5C18.4853 10.5 19.4101 10.7591 20.21 11.2129L20.3388 9.53835C20.3611 9.24795 20.1315 9 19.8402 9H4.15976C3.8685 9 3.63889 9.24795 3.66123 9.53835L4.35354 18.5383C4.37357 18.7988 4.5908 19 4.85206 19H12.8895ZM21.5 16C21.5 18.2091 19.7091 20 17.5 20C15.2909 20 13.5 18.2091 13.5 16C13.5 13.7909 15.2909 12 17.5 12C19.7091 12 21.5 13.7909 21.5 16Z" fill="#CDCDCD"/>
</svg>
