<svg width="24" height="24" viewBox="0 0 24 24" fill="none" xmlns="http://www.w3.org/2000/svg">
<path fill-rule="evenodd" clip-rule="evenodd" d="M2.00102 7.47254C1.89969 6.73726 2.2383 5.9556 3.01872 5.5597L10.8135 2.06527C11.3844 1.77564 12.0691 1.77843 12.6426 2.07271L21.0839 5.56528C22.0017 6.03625 22.0011 6.70272 22 7.82412L22 7.93932V15.972C22.0076 16.6522 21.6438 17.286 21.0423 17.6405L12.6521 21.8756C12.5696 21.9243 12.4842 21.9598 12.3978 21.9832C12.1107 22.1291 11.7507 22.1434 11.4289 21.9621L2.99912 17.6165C2.39176 17.2742 2.0153 16.6491 2.0077 15.9703L2.00001 7.56131C1.99968 7.53151 2.00002 7.50191 2.00102 7.47254ZM3.71012 6.81504L11.5049 3.32061C11.6476 3.24821 11.8188 3.2489 11.9621 3.32247L20.4034 6.81504C20.7517 6.99376 20.7538 7.4742 20.4071 7.65008L12 11.0653C11.8573 11.1377 11.6861 11.137 11.5427 11.0634L3.71376 7.65008C3.3655 7.47137 3.3634 6.99093 3.71012 6.81504ZM3.3109 9.01528H3.28285L3.51349 9.12196L3.50761 15.9546C3.50951 16.1243 3.60363 16.2806 3.75547 16.3662L11.1213 20.1121L11.0574 12.4005C10.9912 12.375 10.926 12.3459 10.8623 12.3132L3.3109 9.01528ZM12.8086 12.263L12.9144 20.0293L20.2606 16.4048C20.411 16.3162 20.5019 16.1577 20.5 15.9877L20.5001 9.19969L12.8086 12.263ZM5.18059 12.2299C5.36583 11.8594 5.81634 11.7092 6.18682 11.8945L8.18682 12.8945C8.55731 13.0797 8.70747 13.5302 8.52223 13.9007C8.33699 14.2712 7.88649 14.4213 7.516 14.2361L5.516 13.2361C5.14552 13.0509 4.99535 12.6004 5.18059 12.2299Z" fill="#CDCDCD"/>
</svg>
