<svg width="16" height="16" viewBox="0 0 16 16" fill="none" xmlns="http://www.w3.org/2000/svg">
<path fill-rule="evenodd" clip-rule="evenodd" d="M5.13433 3.26667L2.42767 7.95474C2.36812 8.05787 2.36812 8.18494 2.42767 8.28807L5.13433 12.9762C5.19388 13.0793 5.30392 13.1429 5.42301 13.1429H10.8363C10.9554 13.1429 11.0655 13.0793 11.125 12.9762L13.8317 8.28807C13.8912 8.18494 13.8912 8.05787 13.8317 7.95474L11.125 3.26667C11.0655 3.16354 10.9554 3.10001 10.8363 3.10001H5.42301C5.30392 3.10001 5.19388 3.16354 5.13433 3.26667ZM1.56164 7.45474C1.32346 7.86727 1.32346 8.37554 1.56164 8.78807L4.26831 13.4762C4.50649 13.8887 4.94665 14.1429 5.42301 14.1429H10.8363C11.3127 14.1429 11.7529 13.8887 11.9911 13.4762L14.6977 8.78807C14.9359 8.37554 14.9359 7.86727 14.6977 7.45474L11.9911 2.76667C11.7529 2.35414 11.3127 2.10001 10.8363 2.10001H5.42301C4.94665 2.10001 4.50649 2.35414 4.26831 2.76667L1.56164 7.45474Z" fill="#CDCDCD"/>
<path fill-rule="evenodd" clip-rule="evenodd" d="M4.73334 8.1236C4.73334 7.84746 4.95719 7.6236 5.23334 7.6236H10.8997C11.1758 7.6236 11.3997 7.84746 11.3997 8.1236C11.3997 8.39973 11.1758 8.6236 10.8997 8.6236H5.23334C4.95719 8.6236 4.73334 8.39973 4.73334 8.1236Z" fill="#CDCDCD"/>
<path fill-rule="evenodd" clip-rule="evenodd" d="M8.06653 4.79041C8.34267 4.79041 8.56653 5.01426 8.56653 5.29041V10.9567C8.56653 11.2329 8.34267 11.4567 8.06653 11.4567C7.79033 11.4567 7.56653 11.2329 7.56653 10.9567V5.29041C7.56653 5.01426 7.79033 4.79041 8.06653 4.79041Z" fill="#CDCDCD"/>
</svg>
