<svg width="16" height="16" viewBox="0 0 16 16" fill="none" xmlns="http://www.w3.org/2000/svg">
<path fill-rule="evenodd" clip-rule="evenodd" d="M8 13.6667C11.1296 13.6667 13.6667 11.1296 13.6667 8C13.6667 4.87038 11.1296 2.33333 8 2.33333C4.87039 2.33333 2.33333 4.87038 2.33333 8C2.33333 11.1296 4.87039 13.6667 8 13.6667ZM8 14.6667C11.6819 14.6667 14.6667 11.6819 14.6667 8C14.6667 4.31809 11.6819 1.33333 8 1.33333C4.3181 1.33333 1.33333 4.31809 1.33333 8C1.33333 11.6819 4.3181 14.6667 8 14.6667Z" fill="#CDCDCD"/>
<path fill-rule="evenodd" clip-rule="evenodd" d="M9.44 10.6043C9.31793 11.2668 9.15227 11.8547 8.95713 12.3427C8.74373 12.8761 8.51467 13.2407 8.3114 13.4557C8.1116 13.6669 8.00593 13.6667 7.99987 13.6667C7.99387 13.6667 7.8884 13.6669 7.6886 13.4557C7.48533 13.2407 7.25627 12.8761 7.04287 12.3427C6.84773 11.8547 6.68207 11.2668 6.56 10.6043C7.02373 10.6451 7.5056 10.6667 8 10.6667C8.4944 10.6667 8.97627 10.6451 9.44 10.6043ZM10.4766 10.4766C10.0833 12.9322 9.12267 14.6667 8 14.6667C6.87733 14.6667 5.91665 12.9322 5.52341 10.4766C3.06782 10.0833 1.33333 9.12266 1.33333 8C1.33333 6.87733 3.06782 5.91665 5.52341 5.5234C5.91665 3.06782 6.87733 1.33333 8 1.33333C9.12267 1.33333 10.0833 3.06782 10.4766 5.5234C12.9322 5.91665 14.6667 6.87733 14.6667 8C14.6667 9.12266 12.9322 10.0833 10.4766 10.4766ZM10.6043 6.56C11.2668 6.68206 11.8547 6.84773 12.3427 7.04286C12.8761 7.25626 13.2407 7.48533 13.4557 7.6886C13.6669 7.8884 13.6667 7.99406 13.6667 8.00013C13.6667 8.00613 13.6669 8.1116 13.4557 8.3114C13.2407 8.51466 12.8761 8.74373 12.3427 8.95713C11.8547 9.15226 11.2668 9.31793 10.6043 9.44C10.6451 8.97626 10.6667 8.4944 10.6667 8C10.6667 7.5056 10.6451 7.02373 10.6043 6.56ZM9.58573 6.4143C9.63813 6.9162 9.66667 7.44753 9.66667 8C9.66667 8.55246 9.63813 9.0838 9.58573 9.58573C9.0838 9.63813 8.55247 9.66666 8 9.66666C7.44753 9.66666 6.9162 9.63813 6.4143 9.58573C6.36185 9.0838 6.33333 8.55246 6.33333 8C6.33333 7.44753 6.36185 6.9162 6.4143 6.4143C6.9162 6.36185 7.44753 6.33333 8 6.33333C8.55247 6.33333 9.0838 6.36185 9.58573 6.4143ZM9.44 5.3957C9.31793 4.73318 9.15227 4.14524 8.95713 3.65734C8.74373 3.12385 8.51467 2.75923 8.3114 2.54433C8.1116 2.33307 8.00613 2.33331 8.00013 2.33333C7.99407 2.33331 7.8884 2.33307 7.6886 2.54433C7.48533 2.75923 7.25627 3.12385 7.04287 3.65734C6.84773 4.14524 6.68207 4.73318 6.56 5.3957C7.02373 5.35486 7.5056 5.33333 8 5.33333C8.4944 5.33333 8.97627 5.35486 9.44 5.3957ZM5.3957 6.56C4.73318 6.68206 4.14524 6.84773 3.65735 7.04286C3.12385 7.25626 2.75923 7.48533 2.54434 7.6886C2.33307 7.8884 2.33332 7.99386 2.33333 7.99986C2.33332 8.00593 2.33307 8.1116 2.54434 8.3114C2.75923 8.51466 3.12385 8.74373 3.65735 8.95713C4.14524 9.15226 4.73318 9.31793 5.3957 9.44C5.35486 8.97626 5.33333 8.4944 5.33333 8C5.33333 7.5056 5.35486 7.02373 5.3957 6.56Z" fill="#CDCDCD"/>
</svg>
