<svg width="16" height="16" viewBox="0 0 16 16" fill="none" xmlns="http://www.w3.org/2000/svg">
<g clip-path="url(#clip0_1_24)">
<mask id="mask0_1_24" style="mask-type:luminance" maskUnits="userSpaceOnUse" x="0" y="0" width="16" height="16">
<path d="M16 0H0V16H16V0Z" fill="white"/>
</mask>
<g mask="url(#mask0_1_24)">
<path fill-rule="evenodd" clip-rule="evenodd" d="M12.6197 2.66667H3.38025C3.26879 2.66667 3.16472 2.72237 3.10289 2.81511L2.53519 3.66667H13.4648L12.8971 2.81511C12.8353 2.72237 12.7312 2.66667 12.6197 2.66667ZM2.33333 13V4.66667H13.6667V13C13.6667 13.1841 13.5174 13.3333 13.3333 13.3333H2.66667C2.48257 13.3333 2.33333 13.1841 2.33333 13ZM3.38025 1.66667C2.93444 1.66667 2.51813 1.88947 2.27085 2.26041L1.55727 3.33077C1.41125 3.5498 1.33333 3.80714 1.33333 4.07037V13C1.33333 13.7364 1.93029 14.3333 2.66667 14.3333H13.3333C14.0697 14.3333 14.6667 13.7364 14.6667 13V4.07037C14.6667 3.80714 14.5887 3.5498 14.4427 3.33077L13.7291 2.26041C13.4819 1.88947 13.0655 1.66667 12.6197 1.66667H3.38025ZM7.80393 7.1496C7.8754 6.88287 8.14953 6.72461 8.41627 6.79607C8.683 6.86754 8.84133 7.14174 8.76987 7.40847L7.99693 10.293C7.92547 10.5597 7.65127 10.718 7.38453 10.6465C7.1178 10.5751 6.95953 10.3009 7.031 10.0342L7.80393 7.1496ZM5.97705 7.74694C6.17231 7.55167 6.17231 7.23507 5.97705 7.03981C5.78179 6.84454 5.46521 6.84454 5.26995 7.03981L3.91311 8.39667C3.71785 8.59194 3.71785 8.90854 3.91311 9.10381L5.26995 10.4606C5.46521 10.6559 5.78179 10.6559 5.97705 10.4606C6.17231 10.2653 6.17231 9.94881 5.97705 9.75354L4.97377 8.75021L5.97705 7.74694ZM9.8896 7.74694C9.69433 7.55167 9.69433 7.23507 9.8896 7.03981C10.0849 6.84454 10.4015 6.84454 10.5967 7.03981L11.9535 8.39667C12.1488 8.59194 12.1488 8.90854 11.9535 9.10381L10.5967 10.4606C10.4015 10.6559 10.0849 10.6559 9.8896 10.4606C9.69433 10.2653 9.69433 9.94881 9.8896 9.75354L10.8929 8.75021L9.8896 7.74694Z" fill="#CDCDCD"/>
</g>
</g>
<defs>
<clipPath id="clip0_1_24">
<rect width="16" height="16" fill="white"/>
</clipPath>
</defs>
</svg>
