<svg width="24" height="24" viewBox="0 0 24 24" fill="none" xmlns="http://www.w3.org/2000/svg">
<path fill-rule="evenodd" clip-rule="evenodd" d="M7.7015 4.9L3.6415 11.9321C3.55218 12.0868 3.55218 12.2774 3.6415 12.4321L7.7015 19.4643C7.79082 19.619 7.95588 19.7143 8.13451 19.7143H16.2545C16.4331 19.7143 16.5982 19.619 16.6875 19.4643L20.7475 12.4321C20.8368 12.2774 20.8368 12.0868 20.7475 11.9321L16.6875 4.9C16.5982 4.7453 16.4331 4.65 16.2545 4.65H8.13451C7.95588 4.65 7.79082 4.7453 7.7015 4.9ZM2.34246 11.1821C1.98519 11.8009 1.98519 12.5633 2.34246 13.1821L6.40246 20.2143C6.75973 20.8331 7.41998 21.2143 8.13451 21.2143H16.2545C16.969 21.2143 17.6293 20.8331 17.9866 20.2143L22.0466 13.1821C22.4038 12.5633 22.4038 11.8009 22.0466 11.1821L17.9866 4.15C17.6293 3.5312 16.969 3.15 16.2545 3.15H8.13451C7.41998 3.15 6.75973 3.5312 6.40246 4.15L2.34246 11.1821Z" fill="#CDCDCD"/>
<path fill-rule="evenodd" clip-rule="evenodd" d="M7.10001 12.1854C7.10001 11.7712 7.43579 11.4354 7.85001 11.4354H16.3495C16.7637 11.4354 17.0995 11.7712 17.0995 12.1854C17.0995 12.5996 16.7637 12.9354 16.3495 12.9354H7.85001C7.43579 12.9354 7.10001 12.5996 7.10001 12.1854Z" fill="#CDCDCD"/>
<path fill-rule="evenodd" clip-rule="evenodd" d="M12.0998 7.18561C12.514 7.18561 12.8498 7.52139 12.8498 7.93561L12.8498 16.4351C12.8498 16.8493 12.514 17.1851 12.0998 17.1851C11.6855 17.1851 11.3498 16.8493 11.3498 16.4351L11.3498 7.93561C11.3498 7.52139 11.6855 7.18561 12.0998 7.18561Z" fill="#CDCDCD"/>
</svg>
