<?xml version="1.0" encoding="UTF-8" standalone="no"?>
<svg
   xmlns:dc="http://purl.org/dc/elements/1.1/"
   xmlns:cc="http://creativecommons.org/ns#"
   xmlns:rdf="http://www.w3.org/1999/02/22-rdf-syntax-ns#"
   xmlns:svg="http://www.w3.org/2000/svg"
   xmlns="http://www.w3.org/2000/svg"
   xmlns:sodipodi="http://sodipodi.sourceforge.net/DTD/sodipodi-0.dtd"
   xmlns:inkscape="http://www.inkscape.org/namespaces/inkscape"
   t="1618230665710"
   class="icon"
   viewBox="0 0 81.92 81.92"
   version="1.1"
   p-id="3737"
   width="16"
   height="16"
   id="svg12"
   sodipodi:docname="command_addDevice.svg"
   inkscape:version="1.0.1 (3bc2e813f5, 2020-09-07)">
  <metadata
     id="metadata16">
    <rdf:RDF>
      <cc:Work
         rdf:about="">
        <dc:format>image/svg+xml</dc:format>
        <dc:type
           rdf:resource="http://purl.org/dc/dcmitype/StillImage" />
        <dc:title></dc:title>
      </cc:Work>
    </rdf:RDF>
  </metadata>
  <sodipodi:namedview
     pagecolor="#ffffff"
     bordercolor="#666666"
     borderopacity="1"
     objecttolerance="10"
     gridtolerance="10"
     guidetolerance="10"
     inkscape:pageopacity="0"
     inkscape:pageshadow="2"
     inkscape:window-width="1339"
     inkscape:window-height="981"
     id="namedview14"
     showgrid="false"
     inkscape:zoom="10.39447"
     inkscape:cx="14.765642"
     inkscape:cy="21.503952"
     inkscape:window-x="0"
     inkscape:window-y="0"
     inkscape:window-maximized="0"
     inkscape:current-layer="svg12" />
  <defs
     id="defs4">
    <style
       type="text/css"
       id="style2" />
  </defs>
  <path
     d="m 24.595508,20.59979 m -5.939225,0 a 5.9392254,5.9392254 0 1 0 11.87845,0 5.9392254,5.9392254 0 1 0 -11.87845,0 z"
     p-id="3738"
     fill="#dbdbdb"
     id="path6"
     style="stroke-width:0.0821973" />
  <path
     d="M 54.013233,71.77921 C 53.595629,71.40801 53.22443,70.8976 52.714027,67.09278 h 7.238429 C 54.802035,63.24157 51.50762,57.11674 51.50762,50.20311 c 0,-0.0464 0,-0.0464 0,-0.0928 H 10.953851 c 4.036816,-3.80481 8.676836,-8.58403 10.068842,-9.32643 6.078426,-3.10882 9.558441,2.7376 9.976042,3.71201 0.139201,0.3248 5.800024,-11.97125 15.265665,-10.34724 2.830412,0.3248 5.892823,1.76321 9.140839,3.85121 0.881602,-1.2528 1.856009,-2.36641 3.016011,-3.38721 C 53.966833,31.73584 49.651615,29.55503 46.3108,29.18383 34.014748,27.93102 30.859535,38.69587 30.720334,38.37106 30.256332,36.51506 27.611521,31.96784 20.744292,35.72625 18.702683,36.79346 10.72185,44.12469 6.0354296,48.48631 V 13.03656 c 0,-0.7424 0.603202,-1.29921 1.299205,-1.29921 H 75.589324 c 0.742403,0 1.299206,0.60321 1.299206,1.29921 v 16.47207 c 1.809605,0.3712 3.526415,0.9744 5.150424,1.7632 V 13.73256 c 0,-3.66561 -2.923215,-6.6352281 -6.58883,-6.6352281 H 7.4738356 c -3.619215,0 -6.58882802,2.9696181 -6.58882802,6.5888281 v 46.8178 c 0,3.61921 2.96961302,6.58882 6.58882802,6.58882 H 30.395532 c -0.0464,0.37121 -0.0928,0.74241 -0.1856,1.16001 -0.278401,1.20641 -0.742403,2.87681 -0.928004,2.96961 -0.1392,0.0928 -0.371201,0.51041 -0.464002,0.6032 -0.556802,0.51041 -0.928004,1.29921 -0.928004,2.18081 0,1.62401 1.252806,2.92322 2.737612,2.92322 h 21.622493 c 1.531206,0 2.737608,-1.29921 2.737608,-2.92322 0,-0.7888 -0.278399,-1.4848 -0.788803,-2.04161 -0.0464,-0.0928 -0.139199,-0.1392 -0.185599,-0.18559 z"
     p-id="3739"
     fill="#dbdbdb"
     id="path8"
     style="stroke-width:0.0821973" />
  <path
     d="m 81.667751,51.50232 c 0,0.1856 -0.0928,0.2784 -0.278404,0.2784 h -9.465638 v 9.46564 c 0,0.1856 -0.0928,0.2784 -0.278403,0.2784 h -4.222418 c -0.185599,0 -0.278399,-0.0928 -0.278399,-0.2784 v -9.46564 h -9.465642 c -0.1856,0 -0.2784,-0.0928 -0.2784,-0.2784 V 47.2799 c 0,-0.1856 0.0928,-0.2784 0.2784,-0.2784 h 9.465642 v -9.41924 c 0,-0.1856 0.0928,-0.2784 0.278399,-0.2784 h 4.222418 c 0.185604,0 0.278403,0.0928 0.278403,0.2784 v 9.46564 h 9.465638 c 0.185604,0 0.278404,0.0928 0.278404,0.2784 z"
     p-id="3740"
     fill="#dbdbdb"
     id="path10"
     style="stroke-width:0.0821973" />
</svg>
