<svg width="16" height="16" viewBox="0 0 16 16" fill="none" xmlns="http://www.w3.org/2000/svg">
<path fill-rule="evenodd" clip-rule="evenodd" d="M13.95 3.74999V11.4405C13.95 11.6361 13.7933 11.7947 13.6 11.7947H10.2449C9.67727 11.7947 9.17433 11.9957 8.77947 12.2519C8.6302 12.3488 8.46107 12.4458 8.29847 12.5157C8.1236 12.5907 8.0258 12.6041 8 12.6041C7.9742 12.6041 7.8764 12.5907 7.70153 12.5157C7.53893 12.4458 7.3698 12.3488 7.22053 12.2519C6.82567 11.9957 6.32272 11.7947 5.75513 11.7947H2.4C2.2067 11.7947 2.05 11.6361 2.05 11.4405V3.74999C2.05 3.55439 2.2067 3.39583 2.4 3.39583H5.75513C5.82795 3.39583 5.94256 3.42323 6.08678 3.51683C6.29562 3.65237 6.57308 3.81561 6.88087 3.94783C7.17633 4.07478 7.57267 4.20535 8 4.20535C8.42733 4.20535 8.82367 4.07478 9.11913 3.94783C9.42693 3.81561 9.7044 3.65238 9.9132 3.51683C10.0575 3.42323 10.1721 3.39583 10.2449 3.39583H13.6C13.7933 3.39583 13.95 3.55439 13.95 3.74999ZM1 3.74999C1 2.96759 1.6268 2.33333 2.4 2.33333H5.75513C6.07534 2.33333 6.38412 2.44755 6.65365 2.62248C7.0118 2.85491 7.54687 3.14285 8 3.14285C8.45313 3.14285 8.9882 2.85491 9.34633 2.62248C9.61587 2.44755 9.92467 2.33333 10.2449 2.33333H13.6C14.3732 2.33333 15 2.96759 15 3.74999V11.4405C15 12.2229 14.3732 12.8571 13.6 12.8571H10.2449C9.92467 12.8571 9.61587 12.9714 9.34633 13.1463C8.9882 13.3787 8.45313 13.6667 8 13.6667C7.54687 13.6667 7.0118 13.3787 6.65365 13.1463C6.38412 12.9714 6.07534 12.8571 5.75513 12.8571H2.4C1.6268 12.8571 1 12.2229 1 11.4405V3.74999ZM8 5.16666C7.72387 5.16666 7.5 5.39052 7.5 5.66666V10.6667C7.5 10.9428 7.72387 11.1667 8 11.1667C8.27613 11.1667 8.5 10.9428 8.5 10.6667V5.66666C8.5 5.39052 8.27613 5.16666 8 5.16666ZM3.66667 6.16666C3.66667 5.89052 3.89053 5.66666 4.16667 5.66666C4.44281 5.66666 4.66667 5.89052 4.66667 6.16666V9.16666C4.66667 9.44279 4.44281 9.66666 4.16667 9.66666C3.89053 9.66666 3.66667 9.44279 3.66667 9.16666V6.16666ZM11.8333 5.66666C11.5572 5.66666 11.3333 5.89052 11.3333 6.16666V9.16666C11.3333 9.44279 11.5572 9.66666 11.8333 9.66666C12.1095 9.66666 12.3333 9.44279 12.3333 9.16666V6.16666C12.3333 5.89052 12.1095 5.66666 11.8333 5.66666Z" fill="#CDCDCD"/>
</svg>
