<svg width="24" height="24" viewBox="0 0 24 24" fill="none" xmlns="http://www.w3.org/2000/svg">
<path fill-rule="evenodd" clip-rule="evenodd" d="M20.925 5.625V17.1607C20.925 17.4541 20.6899 17.692 20.4 17.692H15.3673C14.5159 17.692 13.7615 17.9935 13.1692 18.3779C12.9453 18.5232 12.6916 18.6687 12.4477 18.7735C12.1854 18.8861 12.0387 18.9062 12 18.9062C11.9613 18.9062 11.8146 18.8861 11.5523 18.7735C11.3084 18.6687 11.0547 18.5232 10.8308 18.3779C10.2385 17.9935 9.48408 17.692 8.6327 17.692H3.6C3.31005 17.692 3.075 17.4541 3.075 17.1607V5.625C3.075 5.3316 3.31005 5.09375 3.6 5.09375H8.6327C8.74193 5.09375 8.91384 5.13486 9.13017 5.27526C9.44343 5.47857 9.85962 5.72342 10.3213 5.92175C10.7645 6.11218 11.359 6.30804 12 6.30804C12.641 6.30804 13.2355 6.11218 13.6787 5.92175C14.1404 5.72342 14.5566 5.47858 14.8698 5.27526C15.0862 5.13486 15.2581 5.09375 15.3673 5.09375H20.4C20.6899 5.09375 20.925 5.3316 20.925 5.625ZM1.5 5.625C1.5 4.45139 2.4402 3.5 3.6 3.5H8.6327C9.11301 3.5 9.57618 3.67134 9.98048 3.93373C10.5177 4.28237 11.3203 4.71429 12 4.71429C12.6797 4.71429 13.4823 4.28237 14.0195 3.93373C14.4238 3.67134 14.887 3.5 15.3673 3.5H20.4C21.5598 3.5 22.5 4.45139 22.5 5.625V17.1607C22.5 18.3343 21.5598 19.2857 20.4 19.2857H15.3673C14.887 19.2857 14.4238 19.4571 14.0195 19.7194C13.4823 20.0681 12.6797 20.5 12 20.5C11.3203 20.5 10.5177 20.0681 9.98048 19.7194C9.57618 19.4571 9.11301 19.2857 8.6327 19.2857H3.6C2.4402 19.2857 1.5 18.3343 1.5 17.1607V5.625ZM12 7.75C11.5858 7.75 11.25 8.08579 11.25 8.5V16C11.25 16.4142 11.5858 16.75 12 16.75C12.4142 16.75 12.75 16.4142 12.75 16V8.5C12.75 8.08579 12.4142 7.75 12 7.75ZM5.5 9.25C5.5 8.83579 5.83579 8.5 6.25 8.5C6.66421 8.5 7 8.83579 7 9.25V13.75C7 14.1642 6.66421 14.5 6.25 14.5C5.83579 14.5 5.5 14.1642 5.5 13.75V9.25ZM17.75 8.5C17.3358 8.5 17 8.83579 17 9.25V13.75C17 14.1642 17.3358 14.5 17.75 14.5C18.1642 14.5 18.5 14.1642 18.5 13.75V9.25C18.5 8.83579 18.1642 8.5 17.75 8.5Z" fill="#CDCDCD"/>
</svg>
