<svg width="24" height="24" viewBox="0 0 24 24" fill="none" xmlns="http://www.w3.org/2000/svg">
<path fill-rule="evenodd" clip-rule="evenodd" d="M3.75 12C3.75 7.44365 7.44365 3.75 12 3.75C13.9728 3.75 15.7831 4.44174 17.2029 5.59709L15.6414 7.15858C15.5154 7.28457 15.6047 7.5 15.7828 7.5L20.1 7.5C20.2105 7.5 20.3 7.41046 20.3 7.3V2.98284C20.3 2.80466 20.0846 2.71543 19.9586 2.84142L18.2683 4.53173C16.5739 3.10828 14.3866 2.25 12 2.25C6.61522 2.25 2.25 6.61522 2.25 12C2.25 17.3848 6.61522 21.75 12 21.75C17.1324 21.75 21.3386 17.7843 21.7216 12.75C21.753 12.337 21.4142 12 21 12C20.5858 12 20.2536 12.3369 20.2164 12.7494C19.8378 16.9546 16.3037 20.25 12 20.25C7.44365 20.25 3.75 16.5563 3.75 12Z" fill="#CDCDCD"/>
</svg>
