<svg width="16" height="16" viewBox="0 0 16 16" fill="none" xmlns="http://www.w3.org/2000/svg">
<path fill-rule="evenodd" clip-rule="evenodd" d="M1.33401 4.98169C1.26646 4.49151 1.4922 3.9704 2.01248 3.70647L7.209 1.37685C7.5896 1.18376 8.04607 1.18562 8.4284 1.38181L14.0559 3.71019C14.6678 4.02417 14.6674 4.46848 14.6667 5.21608V5.29288V10.648C14.6717 11.1015 14.4292 11.524 14.0282 11.7603L8.43473 14.5837C8.37973 14.6162 8.3228 14.6399 8.2652 14.6555C8.0738 14.7527 7.8338 14.7623 7.61927 14.6414L1.99941 11.7443C1.59451 11.5161 1.34353 11.0994 1.33847 10.6469L1.33334 5.04087C1.33312 5.02101 1.33335 5.00127 1.33401 4.98169ZM2.47341 4.54336L7.66993 2.21374C7.76507 2.16547 7.8792 2.16593 7.97473 2.21498L13.6023 4.54336C13.8345 4.66251 13.8359 4.9828 13.6047 5.10005L8 7.37687C7.90487 7.42513 7.79073 7.42467 7.69513 7.3756L2.47584 5.10005C2.24367 4.98091 2.24227 4.66062 2.47341 4.54336ZM2.20727 6.01019H2.18857L2.34233 6.08131L2.33841 10.6364C2.33967 10.7495 2.40242 10.8537 2.50365 10.9108L7.4142 13.4081L7.3716 8.267C7.32747 8.25 7.284 8.2306 7.24153 8.2088L2.20727 6.01019ZM8.53907 8.17533L8.6096 13.3529L13.5071 10.9365C13.6073 10.8775 13.6679 10.7718 13.6667 10.6585L13.6667 6.13313L8.53907 8.17533ZM3.45373 8.15327C3.57722 7.90627 3.87756 7.80613 4.12455 7.92967L5.45788 8.59633C5.70487 8.7198 5.80498 9.02013 5.68149 9.26713C5.55799 9.51413 5.25766 9.6142 5.01067 9.49073L3.67733 8.82407C3.43035 8.7006 3.33023 8.40027 3.45373 8.15327Z" fill="#CDCDCD"/>
</svg>
