<svg width="24" height="24" viewBox="0 0 24 24" fill="none" xmlns="http://www.w3.org/2000/svg">
<path fill-rule="evenodd" clip-rule="evenodd" d="M5 4.5H19C19.2761 4.5 19.5 4.72386 19.5 5V19C19.5 19.2761 19.2761 19.5 19 19.5H5C4.72386 19.5 4.5 19.2761 4.5 19V5C4.5 4.72386 4.72386 4.5 5 4.5ZM3 5C3 3.89543 3.89543 3 5 3H19C20.1046 3 21 3.89543 21 5V19C21 20.1046 20.1046 21 19 21H5C3.89543 21 3 20.1046 3 19V5ZM6.94822 16.9874C6.65532 16.6945 6.65532 16.2196 6.94822 15.9267L8.89644 13.9785L6.96967 12.0517C6.67678 11.7589 6.67678 11.284 6.96967 10.9911C7.26256 10.6982 7.73744 10.6982 8.03033 10.9911L10.4874 13.4482C10.7803 13.7411 10.7803 14.216 10.4874 14.5089L8.00888 16.9874C7.71598 17.2803 7.24111 17.2803 6.94822 16.9874ZM11.75 16.5C11.75 16.0858 12.0858 15.75 12.5 15.75H17C17.4142 15.75 17.75 16.0858 17.75 16.5C17.75 16.9142 17.4142 17.25 17 17.25H12.5C12.0858 17.25 11.75 16.9142 11.75 16.5Z" fill="#CDCDCD"/>
</svg>
