<svg width="16" height="16" viewBox="0 0 16 16" fill="none" xmlns="http://www.w3.org/2000/svg">
<path fill-rule="evenodd" clip-rule="evenodd" d="M3.33333 3H12.6667C12.8507 3 13 3.14924 13 3.33333V12.6667C13 12.8507 12.8507 13 12.6667 13H3.33333C3.14924 13 3 12.8507 3 12.6667V3.33333C3 3.14924 3.14924 3 3.33333 3ZM2 3.33333C2 2.59695 2.59695 2 3.33333 2H12.6667C13.4031 2 14 2.59695 14 3.33333V12.6667C14 13.4031 13.4031 14 12.6667 14H3.33333C2.59695 14 2 13.4031 2 12.6667V3.33333ZM4.63215 11.3249C4.43688 11.1297 4.43688 10.8131 4.63215 10.6178L5.93096 9.319L4.64645 8.03447C4.45119 7.83927 4.45119 7.52267 4.64645 7.3274C4.84171 7.13213 5.15829 7.13213 5.35355 7.3274L6.9916 8.96547C7.18687 9.16073 7.18687 9.47733 6.9916 9.6726L5.33925 11.3249C5.14399 11.5202 4.82741 11.5202 4.63215 11.3249ZM7.83333 11C7.83333 10.7239 8.0572 10.5 8.33333 10.5H11.3333C11.6095 10.5 11.8333 10.7239 11.8333 11C11.8333 11.2761 11.6095 11.5 11.3333 11.5H8.33333C8.0572 11.5 7.83333 11.2761 7.83333 11Z" fill="#CDCDCD"/>
</svg>
