<svg width="16" height="16" viewBox="0 0 16 16" fill="none" xmlns="http://www.w3.org/2000/svg">
<path fill-rule="evenodd" clip-rule="evenodd" d="M4.5 5.83334C4.5 3.90034 6.067 2.33334 8 2.33334C9.933 2.33334 11.5 3.90034 11.5 5.83334C11.5 6.10948 11.7239 6.33334 12 6.33334C12.2761 6.33334 12.5 6.10948 12.5 5.83334C12.5 3.34806 10.4853 1.33334 8 1.33334C5.51472 1.33334 3.5 3.34806 3.5 5.83334C3.5 6.10948 3.72386 6.33334 4 6.33334C4.27614 6.33334 4.5 6.10948 4.5 5.83334ZM6.5 5.83334C6.5 5.00491 7.1716 4.33334 8 4.33334C8.8284 4.33334 9.5 5.00491 9.5 5.83334C9.5 6.10948 9.72387 6.33334 10 6.33334C10.2761 6.33334 10.5 6.10948 10.5 5.83334C10.5 4.45262 9.38073 3.33334 8 3.33334C6.61929 3.33334 5.5 4.45262 5.5 5.83334C5.5 6.10948 5.72386 6.33334 6 6.33334C6.27614 6.33334 6.5 6.10948 6.5 5.83334ZM7.5 6.5C7.5 6.22386 7.72387 6 8 6C8.27613 6 8.5 6.22386 8.5 6.5V8.66667H13.3333C14.0697 8.66667 14.6667 9.2636 14.6667 10V13C14.6667 13.7364 14.0697 14.3333 13.3333 14.3333H2.66667C1.93029 14.3333 1.33333 13.7364 1.33333 13V10C1.33333 9.2636 1.93029 8.66667 2.66667 8.66667H7.5V6.5ZM2.66667 9.66667C2.48257 9.66667 2.33333 9.81594 2.33333 10V13C2.33333 13.1841 2.48257 13.3333 2.66667 13.3333H13.3333C13.5174 13.3333 13.6667 13.1841 13.6667 13V10C13.6667 9.81594 13.5174 9.66667 13.3333 9.66667H2.66667ZM4.33333 11.5C4.33333 11.7761 4.10947 12 3.83333 12C3.55719 12 3.33333 11.7761 3.33333 11.5C3.33333 11.2239 3.55719 11 3.83333 11C4.10947 11 4.33333 11.2239 4.33333 11.5ZM6.16667 12C6.44281 12 6.66667 11.7761 6.66667 11.5C6.66667 11.2239 6.44281 11 6.16667 11C5.89053 11 5.66667 11.2239 5.66667 11.5C5.66667 11.7761 5.89053 12 6.16667 12Z" fill="#CDCDCD"/>
</svg>
