<svg width="16" height="16" viewBox="0 0 16 16" fill="none" xmlns="http://www.w3.org/2000/svg">
<path fill-rule="evenodd" clip-rule="evenodd" d="M1.5 3.33333C1.5 2.32081 2.32081 1.5 3.33333 1.5H5.33333C6.34585 1.5 7.16667 2.32081 7.16667 3.33333V5.11111C7.16667 5.38725 6.9428 5.61111 6.66667 5.61111C6.39053 5.61111 6.16667 5.38725 6.16667 5.11111V3.33333C6.16667 2.87309 5.79357 2.5 5.33333 2.5H3.33333C2.87309 2.5 2.5 2.87309 2.5 3.33333V5.33333C2.5 5.79357 2.8731 6.16667 3.33333 6.16667H4.59259C4.86873 6.16667 5.09259 6.39053 5.09259 6.66667C5.09259 6.9428 4.86873 7.16667 4.59259 7.16667H3.33333C2.32081 7.16667 1.5 6.34585 1.5 5.33333V3.33333ZM1.5 12.6667C1.5 13.6792 2.32081 14.5 3.33333 14.5H5.33333C6.34585 14.5 7.16667 13.6792 7.16667 12.6667V10.8889C7.16667 10.6127 6.9428 10.3889 6.66667 10.3889C6.39053 10.3889 6.16667 10.6127 6.16667 10.8889V12.6667C6.16667 13.1269 5.79357 13.5 5.33333 13.5H3.33333C2.87309 13.5 2.5 13.1269 2.5 12.6667V10.6667C2.5 10.2064 2.8731 9.83333 3.33333 9.83333H4.59259C4.86873 9.83333 5.09259 9.60947 5.09259 9.33333C5.09259 9.0572 4.86873 8.83333 4.59259 8.83333H3.33333C2.32081 8.83333 1.5 9.65413 1.5 10.6667V12.6667ZM12.6667 1.5C13.6792 1.5 14.5 2.32081 14.5 3.33333V5.33333C14.5 6.34585 13.6792 7.16667 12.6667 7.16667H11.4074C11.1313 7.16667 10.9074 6.9428 10.9074 6.66667C10.9074 6.39053 11.1313 6.16667 11.4074 6.16667H12.6667C13.1269 6.16667 13.5 5.79357 13.5 5.33333V3.33333C13.5 2.87309 13.1269 2.5 12.6667 2.5H10.6667C10.2064 2.5 9.83333 2.87309 9.83333 3.33333V5.11111C9.83333 5.38725 9.60947 5.61111 9.33333 5.61111C9.0572 5.61111 8.83333 5.38725 8.83333 5.11111V3.33333C8.83333 2.32081 9.65413 1.5 10.6667 1.5H12.6667ZM14.5 12.6667C14.5 13.6792 13.6792 14.5 12.6667 14.5H10.6667C9.65413 14.5 8.83333 13.6792 8.83333 12.6667V10.8889C8.83333 10.6127 9.0572 10.3889 9.33333 10.3889C9.60947 10.3889 9.83333 10.6127 9.83333 10.8889V12.6667C9.83333 13.1269 10.2064 13.5 10.6667 13.5H12.6667C13.1269 13.5 13.5 13.1269 13.5 12.6667V10.6667C13.5 10.2064 13.1269 9.83333 12.6667 9.83333H11.4074C11.1313 9.83333 10.9074 9.60947 10.9074 9.33333C10.9074 9.0572 11.1313 8.83333 11.4074 8.83333H12.6667C13.6792 8.83333 14.5 9.65413 14.5 10.6667V12.6667ZM8 9C7.44773 9 7 8.55227 7 8C7 7.44773 7.44773 7 8 7C8.55227 7 9 7.44773 9 8C9 8.55227 8.55227 9 8 9ZM6 8C6 6.8954 6.8954 6 8 6C9.1046 6 10 6.8954 10 8C10 9.1046 9.1046 10 8 10C6.8954 10 6 9.1046 6 8Z" fill="#CDCDCD"/>
</svg>
