<?xml version="1.0" standalone="no"?><!DOCTYPE svg PUBLIC "-//W3C//DTD SVG 1.1//EN" "http://www.w3.org/Graphics/SVG/1.1/DTD/svg11.dtd"><svg t="1618217931884" class="icon" viewBox="0 0 1024 1024" version="1.1" xmlns="http://www.w3.org/2000/svg" p-id="7365" xmlns:xlink="http://www.w3.org/1999/xlink" width="200" height="200"><defs><style type="text/css"></style></defs><path d="M993.882353 436.705882h-60.235294v-101.797647c0-16.564706-13.552941-30.117647-30.117647-30.117647s-30.117647 13.552941-30.117647 30.117647v101.797647h-60.235294V267.444706c0-16.564706-13.552941-30.117647-30.117647-30.117647s-30.117647 13.552941-30.117648 30.117647v169.562353h-60.235294v-271.058824c0-16.564706-13.552941-30.117647-30.117647-30.117647s-30.117647 13.552941-30.117647 30.117647v271.058824H30.117647c-16.564706 0-30.117647 13.552941-30.117647 30.117647v361.411765c0 16.564706 13.552941 30.117647 30.117647 30.117647h963.764706c16.564706 0 30.117647-13.552941 30.117647-30.117647v-361.411765c0-16.865882-13.552941-30.418824-30.117647-30.418824z m-30.117647 361.411765H60.235294v-301.176471h903.529412v301.176471z" fill="#dbdbdb" p-id="7366"></path><path d="M331.294118 617.411765H150.588235c-16.564706 0-30.117647-13.552941-30.117647-30.117647s13.552941-30.117647 30.117647-30.117647h180.705883c16.564706 0 30.117647 13.552941 30.117647 30.117647s-13.552941 30.117647-30.117647 30.117647zM240.941176 737.882353H150.588235c-16.564706 0-30.117647-13.552941-30.117647-30.117647s13.552941-30.117647 30.117647-30.117647h90.352941c16.564706 0 30.117647 13.552941 30.117648 30.117647s-13.552941 30.117647-30.117648 30.117647zM873.411765 617.411765c-16.564706 0-30.117647-13.552941-30.117647-30.117647s13.552941-30.117647 30.117647-30.117647 30.117647 13.552941 30.117647 30.117647-13.552941 30.117647-30.117647 30.117647zM752.941176 617.411765c-16.564706 0-30.117647-13.552941-30.117647-30.117647s13.552941-30.117647 30.117647-30.117647 30.117647 13.552941 30.117648 30.117647-13.552941 30.117647-30.117648 30.117647zM632.470588 617.411765c-16.564706 0-30.117647-13.552941-30.117647-30.117647s13.552941-30.117647 30.117647-30.117647 30.117647 13.552941 30.117647 30.117647-13.552941 30.117647-30.117647 30.117647zM512 617.411765c-16.564706 0-30.117647-13.552941-30.117647-30.117647s13.552941-30.117647 30.117647-30.117647 30.117647 13.552941 30.117647 30.117647-13.552941 30.117647-30.117647 30.117647zM752.941176 737.882353c-16.564706 0-30.117647-13.552941-30.117647-30.117647s13.552941-30.117647 30.117647-30.117647 30.117647 13.552941 30.117648 30.117647-13.552941 30.117647-30.117648 30.117647zM632.470588 737.882353c-16.564706 0-30.117647-13.552941-30.117647-30.117647s13.552941-30.117647 30.117647-30.117647 30.117647 13.552941 30.117647 30.117647-13.552941 30.117647-30.117647 30.117647zM512 737.882353c-16.564706 0-30.117647-13.552941-30.117647-30.117647s13.552941-30.117647 30.117647-30.117647 30.117647 13.552941 30.117647 30.117647-13.552941 30.117647-30.117647 30.117647z" fill="#dbdbdb" p-id="7367"></path><path d="M335.510588 409.901176c-8.734118 0-17.468235-3.915294-23.491764-11.143529-15.36-18.672941-37.948235-29.515294-62.644706-29.515294-24.395294 0-47.284706 10.842353-62.644706 29.515294a30.177882 30.177882 0 1 1-46.98353-37.948235 140.498824 140.498824 0 0 1 109.327059-51.802353c42.767059 0 82.522353 18.974118 109.327059 51.802353 10.541176 12.950588 8.432941 31.924706-4.517647 42.465882-5.12 4.517647-11.745882 6.625882-18.371765 6.625882z" fill="#dbdbdb" p-id="7368"></path><path d="M413.214118 333.703529c-8.131765 0-16.263529-3.312941-22.287059-9.938823a191.638588 191.638588 0 0 0-141.552941-62.042353c-53.910588 0-105.712941 22.588235-141.552942 62.042353A30.027294 30.027294 0 1 1 63.247059 283.407059a251.422118 251.422118 0 0 1 186.127059-81.92c70.776471 0 138.842353 29.816471 186.127058 81.92 11.143529 12.348235 10.24 31.322353-2.108235 42.465882a29.816471 29.816471 0 0 1-20.178823 7.830588z" fill="#dbdbdb" p-id="7369"></path></svg>