<svg width="24" height="24" viewBox="0 0 24 24" fill="none" xmlns="http://www.w3.org/2000/svg">
<path d="M4 2.5C2.89542 2.5 2 3.39542 2 4.5V19.5C2 20.6046 2.89542 21.5 4 21.5H13.9483C13.89 21.438 13.8353 21.3719 13.7848 21.3022C13.7447 21.2468 13.7072 21.1891 13.6726 21.1292L13.0207 20H4C3.72385 20 3.5 19.7762 3.5 19.5V15.4573C3.57819 15.485 3.66235 15.5 3.75 15.5H11.5773L12.4434 14H3.75C3.66235 14 3.57819 14.015 3.5 14.0427V4.5C3.5 4.22385 3.72385 4 4 4H20C20.2762 4 20.5 4.22385 20.5 4.5V11.0872C20.8403 11.2598 21.13 11.5291 21.3273 11.8708L22 13.0359V4.5C22 3.39542 21.1046 2.5 20 2.5H4Z" fill="#CDCDCD"/>
<path d="M21.5122 20.809C21.6773 20.6184 21.807 20.3962 21.8911 20.1527L21.5122 20.809Z" fill="#CDCDCD"/>
<path d="M5 7.25C5 6.83578 5.33578 6.5 5.75 6.5H18.25C18.6642 6.5 19 6.83578 19 7.25C19 7.66422 18.6642 8 18.25 8H5.75C5.33578 8 5 7.66422 5 7.25Z" fill="#CDCDCD"/>
<path d="M5.75 9.5C5.33578 9.5 5 9.83578 5 10.25C5 10.6642 5.33578 11 5.75 11H8.25C8.66422 11 9 10.6642 9 10.25C9 9.83578 8.66422 9.5 8.25 9.5H5.75Z" fill="#CDCDCD"/>
<path fill-rule="evenodd" clip-rule="evenodd" d="M14.6532 16.533C14.4656 16.2032 14.4656 15.7969 14.6532 15.4671L15.6219 13.7637C15.8095 13.4339 16.1561 13.2308 16.5312 13.2308H18.4688C18.8439 13.2308 19.1905 13.4339 19.3781 13.7637L20.3468 15.4671C20.5344 15.7969 20.5344 16.2032 20.3468 16.533L19.3781 18.2363C19.1905 18.5661 18.8439 18.7693 18.4688 18.7693H16.5312C16.1561 18.7693 15.8095 18.5661 15.6219 18.2363L14.6532 16.533ZM16.8343 17.1704L16.1687 16L16.8343 14.8296H18.1657L18.8313 16L18.1657 17.1704H16.8343Z" fill="#CDCDCD"/>
<path fill-rule="evenodd" clip-rule="evenodd" d="M11.2813 17.0659C10.9062 16.4063 10.9062 15.5937 11.2813 14.9341L13.4814 11.0659C13.8565 10.4063 14.5497 10 15.3 10H19.7C20.4503 10 21.1435 10.4063 21.5186 11.0659L23.7187 14.9341C24.0938 15.5937 24.0938 16.4063 23.7187 17.0659L21.5186 20.9341C21.1435 21.5937 20.4503 22 19.7 22H15.3C14.5497 22 13.8565 21.5937 13.4814 20.9341L11.2813 17.0659ZM12.6453 15.7335L14.8453 11.8653C14.9391 11.7004 15.1124 11.5988 15.3 11.5988H19.7C19.8876 11.5988 20.0609 11.7004 20.1547 11.8653L22.3547 15.7335C22.4485 15.8984 22.4485 16.1016 22.3547 16.2665L20.1547 20.1347C20.0609 20.2996 19.8876 20.4012 19.7 20.4012H15.3C15.1124 20.4012 14.9391 20.2996 14.8453 20.1347L12.6453 16.2665C12.5515 16.1016 12.5515 15.8984 12.6453 15.7335Z" fill="#CDCDCD"/>
</svg>
