<svg width="24" height="24" viewBox="0 0 24 24" fill="none" xmlns="http://www.w3.org/2000/svg">
<path fill-rule="evenodd" clip-rule="evenodd" d="M18.9296 4H5.07037C4.90319 4 4.74708 4.08355 4.65434 4.22265L3.80278 5.5H20.1972L19.3457 4.22265C19.2529 4.08355 19.0968 4 18.9296 4ZM3.5 19.5V7H20.5V19.5C20.5 19.7761 20.2761 20 20 20H4C3.72386 20 3.5 19.7761 3.5 19.5ZM5.07037 2.5C4.40166 2.5 3.7772 2.8342 3.40627 3.3906L2.3359 4.99615C2.11688 5.32469 2 5.7107 2 6.10555V19.5C2 20.6046 2.89543 21.5 4 21.5H20C21.1046 21.5 22 20.6046 22 19.5V6.10555C22 5.7107 21.8831 5.32469 21.6641 4.99615L20.5937 3.3906C20.2228 2.8342 19.5983 2.5 18.9296 2.5H5.07037ZM11.7059 10.7244C11.8131 10.3243 12.2243 10.0869 12.6244 10.1941C13.0245 10.3013 13.262 10.7126 13.1548 11.1127L11.9954 15.4395C11.8882 15.8396 11.4769 16.077 11.0768 15.9698C10.6767 15.8626 10.4393 15.4514 10.5465 15.0513L11.7059 10.7244ZM8.96558 11.6204C9.25847 11.3275 9.25847 10.8526 8.96558 10.5597C8.67269 10.2668 8.19781 10.2668 7.90492 10.5597L5.86966 12.595C5.57677 12.8879 5.57677 13.3628 5.86966 13.6557L7.90492 15.6909C8.19781 15.9838 8.67269 15.9838 8.96558 15.6909C9.25847 15.398 9.25847 14.9232 8.96558 14.6303L7.46065 13.1253L8.96558 11.6204ZM14.8344 11.6204C14.5415 11.3275 14.5415 10.8526 14.8344 10.5597C15.1273 10.2668 15.6022 10.2668 15.8951 10.5597L17.9303 12.595C18.2232 12.8879 18.2232 13.3628 17.9303 13.6557L15.8951 15.6909C15.6022 15.9838 15.1273 15.9838 14.8344 15.6909C14.5415 15.398 14.5415 14.9232 14.8344 14.6303L16.3394 13.1253L14.8344 11.6204Z" fill="#515151"/>
</svg>
