<svg width="16" height="16" viewBox="0 0 16 16" fill="none" xmlns="http://www.w3.org/2000/svg">
<path d="M10.1667 10.2381C9.89055 10.2381 9.66669 10.4619 9.66669 10.7381C9.66669 11.0143 9.89055 11.2381 10.1667 11.2381H11.1667V12.2381C11.1667 12.5143 11.3906 12.7381 11.6667 12.7381C11.9428 12.7381 12.1667 12.5143 12.1667 12.2381V11.2381H13.1667C13.4428 11.2381 13.6667 11.0143 13.6667 10.7381C13.6667 10.4619 13.4428 10.2381 13.1667 10.2381H12.1667V9.23807C12.1667 8.96193 11.9428 8.73807 11.6667 8.73807C11.3906 8.73807 11.1667 8.96193 11.1667 9.23807V10.2381H10.1667Z" fill="#515151"/>
<path fill-rule="evenodd" clip-rule="evenodd" d="M2.87179 5.00001L2.75375 3.0819C2.70654 2.31477 3.31597 1.66667 4.08457 1.66667H4.95093C5.20082 1.66667 5.44569 1.7369 5.65759 1.86934L7.30453 2.89867C7.41047 2.96489 7.53293 3.00001 7.65787 3.00001H11.8995C12.674 3.00001 13.2855 3.65762 13.2293 4.43005L13.1879 5.00001H13.2268C14.0035 5.00001 14.6158 5.66121 14.5563 6.4356L14.4173 8.24201C14.9874 8.88834 15.3333 9.73707 15.3333 10.6667C15.3333 12.6917 13.6917 14.3333 11.6667 14.3333C10.8817 14.3333 10.1544 14.0867 9.55793 13.6667H3.23471C2.53799 13.6667 1.95874 13.1303 1.9053 12.4356L1.44377 6.4356C1.38419 5.66121 1.99649 5.00001 2.77317 5.00001H2.87179ZM12.2319 4.35752L12.1852 5.00001H3.87368L3.75186 3.02048C3.74006 2.82869 3.89242 2.66667 4.08457 2.66667H4.95093C5.0134 2.66667 5.07462 2.68423 5.12759 2.71734L6.77453 3.74667C7.0394 3.91223 7.34547 4.00001 7.65787 4.00001H11.8995C12.0931 4.00001 12.246 4.16441 12.2319 4.35752ZM8.593 12.6667C8.21793 12.0915 8 11.4045 8 10.6667C8 8.64161 9.6416 7.00001 11.6667 7.00001C12.3235 7.00001 12.9401 7.17274 13.4733 7.47527L13.5592 6.35891C13.5741 6.16531 13.421 6.00001 13.2268 6.00001H2.77317C2.579 6.00001 2.42593 6.16531 2.44082 6.35891L2.90236 12.3589C2.91571 12.5325 3.06053 12.6667 3.23471 12.6667H8.593ZM14.3333 10.6667C14.3333 12.1394 13.1394 13.3333 11.6667 13.3333C10.1939 13.3333 9 12.1394 9 10.6667C9 9.19394 10.1939 8.00001 11.6667 8.00001C13.1394 8.00001 14.3333 9.19394 14.3333 10.6667Z" fill="#515151"/>
</svg>
