<?xml version="1.0" standalone="no"?><!DOCTYPE svg PUBLIC "-//W3C//DTD SVG 1.1//EN" "http://www.w3.org/Graphics/SVG/1.1/DTD/svg11.dtd"><svg t="1647851969336" class="icon" viewBox="0 0 1024 1024" version="1.1" xmlns="http://www.w3.org/2000/svg" p-id="2208" xmlns:xlink="http://www.w3.org/1999/xlink" width="200" height="200"><defs><style type="text/css">@font-face { font-family: feedback-iconfont; src: url("//at.alicdn.com/t/font_1031158_u69w8yhxdu.woff2?t=1630033759944") format("woff2"), url("//at.alicdn.com/t/font_1031158_u69w8yhxdu.woff?t=1630033759944") format("woff"), url("//at.alicdn.com/t/font_1031158_u69w8yhxdu.ttf?t=1630033759944") format("truetype"); }
</style></defs><path d="M861.866667 349.866667l-102.4 102.4C733.866667 341.333333 631.466667 256 512 256c-140.8 0-256 115.2-256 256s115.2 256 256 256c136.533333 0 251.733333-106.666667 256-243.2l76.8-76.8c4.266667 21.333333 8.533333 42.666667 8.533333 68.266667 0 187.733333-153.6 341.333333-341.333333 341.333333s-341.333333-153.6-341.333333-341.333333 153.6-341.333333 341.333333-341.333334c110.933333 0 213.333333 55.466667 273.066667 136.533334l8.533333-12.8h119.466667l-51.2 51.2z" fill="#444444" p-id="2209"></path></svg>