<?xml version="1.0" encoding="UTF-8" standalone="no"?>
<svg
   xmlns:dc="http://purl.org/dc/elements/1.1/"
   xmlns:cc="http://creativecommons.org/ns#"
   xmlns:rdf="http://www.w3.org/1999/02/22-rdf-syntax-ns#"
   xmlns:svg="http://www.w3.org/2000/svg"
   xmlns="http://www.w3.org/2000/svg"
   xmlns:sodipodi="http://sodipodi.sourceforge.net/DTD/sodipodi-0.dtd"
   xmlns:inkscape="http://www.inkscape.org/namespaces/inkscape"
   t="1618230325632"
   class="icon"
   viewBox="0 0 81.92 81.92"
   version="1.1"
   p-id="3437"
   width="16"
   height="16"
   id="svg8"
   sodipodi:docname="command_createProject.svg"
   inkscape:version="1.0.1 (3bc2e813f5, 2020-09-07)">
  <metadata
     id="metadata12">
    <rdf:RDF>
      <cc:Work
         rdf:about="">
        <dc:format>image/svg+xml</dc:format>
        <dc:type
           rdf:resource="http://purl.org/dc/dcmitype/StillImage" />
        <dc:title></dc:title>
      </cc:Work>
    </rdf:RDF>
  </metadata>
  <sodipodi:namedview
     pagecolor="#ffffff"
     bordercolor="#666666"
     borderopacity="1"
     objecttolerance="10"
     gridtolerance="10"
     guidetolerance="10"
     inkscape:pageopacity="0"
     inkscape:pageshadow="2"
     inkscape:window-width="1920"
     inkscape:window-height="1001"
     id="namedview10"
     showgrid="false"
     inkscape:zoom="14.7"
     inkscape:cx="12.040737"
     inkscape:cy="19.828197"
     inkscape:window-x="-9"
     inkscape:window-y="-9"
     inkscape:window-maximized="1"
     inkscape:current-layer="svg8" />
  <defs
     id="defs4">
    <style
       type="text/css"
       id="style2" />
  </defs>
  <path
     d="M 74.7112,43.348927 V 26.186752 A 9.7845926,9.7845926 0 0 0 64.926609,16.40216 H 41.942602 L 38.563003,11.275033 A 11.228798,11.228798 0 0 0 29.443763,6.6175673 H 14.305042 A 9.8256877,9.8256877 0 0 0 5.9157324,11.372879 L 1.7416253,18.31994 A 9.8374292,9.8374292 0 0 0 0.34829932,23.349221 V 59.454367 A 9.7845926,9.7845926 0 0 0 10.132892,69.238959 H 48.819213 A 18.571156,18.571156 0 1 0 74.7112,43.348927 Z M 10.132892,63.368203 A 3.913837,3.913837 0 0 1 6.2190548,59.454367 V 23.349221 a 3.8688279,3.8688279 0 0 1 0.5577218,-1.996057 l 4.1721494,-6.966631 a 3.9255785,3.9255785 0 0 1 3.356116,-1.89821 h 15.138721 a 5.5126394,5.5126394 0 0 1 4.17215,1.956918 l 3.913838,5.929463 a 4.9314346,4.9314346 0 0 0 3.913837,1.898212 h 23.483021 a 3.913837,3.913837 0 0 1 3.913837,3.913836 V 40.550534 A 19.189543,19.189543 0 0 0 63.94815,39.885182 18.526148,18.526148 0 0 0 46.032562,63.368203 Z M 63.94815,71.195878 A 12.71997,12.71997 0 1 1 76.668122,58.475908 12.71997,12.71997 0 0 1 63.94815,71.195878 Z m 5.870753,-15.655349 h -2.935375 v -2.935377 a 2.935378,2.935378 0 0 0 -5.870756,0 v 2.935377 h -2.935378 a 2.935378,2.935378 0 0 0 0,5.870756 h 2.935378 v 2.935377 a 2.935378,2.935378 0 0 0 5.870756,0 v -2.935377 h 2.935375 a 2.935378,2.935378 0 0 0 0,-5.870756 z"
     p-id="3438"
     fill="#515151"
     id="path6"
     style="stroke-width:0.0688039" />
</svg>
