<?xml version="1.0" standalone="no"?><!DOCTYPE svg PUBLIC "-//W3C//DTD SVG 1.1//EN" "http://www.w3.org/Graphics/SVG/1.1/DTD/svg11.dtd"><svg t="1618230325632" class="icon" viewBox="0 0 1194 1024" version="1.1" xmlns="http://www.w3.org/2000/svg" p-id="3437" xmlns:xlink="http://www.w3.org/1999/xlink" width="233.203125" height="200"><defs><style type="text/css"></style></defs><path d="M1080.794319 533.85551V284.419558a142.209779 142.209779 0 0 0-142.209778-142.209779H604.53377l-49.119258-74.517924A163.199942 163.199942 0 0 0 422.874998 0H202.848029a142.80706 142.80706 0 0 0-121.930665 69.113953L20.250673 170.082896A142.977712 142.977712 0 0 0 0 243.178722V767.932806a142.209779 142.209779 0 0 0 142.209779 142.209779h562.269024A269.91416 269.91416 0 1 0 1080.794319 533.85551zM142.209779 824.816717a56.883912 56.883912 0 0 1-56.883912-56.883911V243.178722a56.229747 56.229747 0 0 1 8.105958-29.010795l60.638249-101.253363A57.054563 57.054563 0 0 1 202.848029 85.325867h220.026969A80.120989 80.120989 0 0 1 483.513248 113.767823l56.883912 86.179126A71.673729 71.673729 0 0 0 597.281071 227.535646h341.30347a56.883912 56.883912 0 0 1 56.883911 56.883912v208.763955a278.901818 278.901818 0 0 0-71.104889-9.670265 269.259995 269.259995 0 0 0-260.386105 341.303469H142.209779z m782.153784 113.767824a184.872713 184.872713 0 1 1 184.872712-184.872713 184.872713 184.872713 0 0 1-184.872712 184.872713z m85.325867-227.535647H967.026496v-42.662933a42.662934 42.662934 0 0 0-85.325867 0V711.048894h-42.662934a42.662934 42.662934 0 0 0 0 85.325868H881.700629v42.662933a42.662934 42.662934 0 0 0 85.325867 0V796.374762h42.662934a42.662934 42.662934 0 0 0 0-85.325868z" p-id="3438" fill="#515151"></path></svg>