<svg width="16" height="16" viewBox="0 0 16 16" fill="none" xmlns="http://www.w3.org/2000/svg">
<path fill-rule="evenodd" clip-rule="evenodd" d="M8.00001 13.6667C11.1296 13.6667 13.6667 11.1296 13.6667 7.99999C13.6667 4.87038 11.1296 2.33333 8.00001 2.33333C4.8704 2.33333 2.33334 4.87038 2.33334 7.99999C2.33334 11.1296 4.8704 13.6667 8.00001 13.6667ZM8.00001 14.6667C11.6819 14.6667 14.6667 11.6819 14.6667 7.99999C14.6667 4.31809 11.6819 1.33333 8.00001 1.33333C4.31811 1.33333 1.33334 4.31809 1.33334 7.99999C1.33334 11.6819 4.31811 14.6667 8.00001 14.6667Z" fill="#515151"/>
<path fill-rule="evenodd" clip-rule="evenodd" d="M9.44001 10.6043C9.31794 11.2668 9.15228 11.8547 8.95714 12.3427C8.74374 12.8761 8.51468 13.2407 8.31141 13.4557C8.11161 13.6669 8.00594 13.6667 7.99988 13.6667C7.99388 13.6667 7.88841 13.6669 7.68861 13.4557C7.48534 13.2407 7.25628 12.8761 7.04288 12.3427C6.84774 11.8547 6.68208 11.2668 6.56001 10.6043C7.02374 10.6451 7.50561 10.6667 8.00001 10.6667C8.49441 10.6667 8.97628 10.6451 9.44001 10.6043ZM10.4766 10.4766C10.0833 12.9322 9.12268 14.6667 8.00001 14.6667C6.87734 14.6667 5.91666 12.9322 5.52342 10.4766C3.06783 10.0833 1.33334 9.12266 1.33334 7.99999C1.33334 6.87733 3.06783 5.91665 5.52342 5.5234C5.91666 3.06782 6.87734 1.33333 8.00001 1.33333C9.12268 1.33333 10.0833 3.06782 10.4766 5.5234C12.9322 5.91665 14.6667 6.87733 14.6667 7.99999C14.6667 9.12266 12.9322 10.0833 10.4766 10.4766ZM10.6043 6.55999C11.2668 6.68206 11.8547 6.84773 12.3427 7.04286C12.8761 7.25626 13.2407 7.48533 13.4557 7.68859C13.6669 7.88839 13.6667 7.99406 13.6667 8.00013C13.6667 8.00613 13.6669 8.11159 13.4557 8.31139C13.2407 8.51466 12.8761 8.74373 12.3427 8.95713C11.8547 9.15226 11.2668 9.31793 10.6043 9.43999C10.6451 8.97626 10.6667 8.49439 10.6667 7.99999C10.6667 7.50559 10.6451 7.02373 10.6043 6.55999ZM9.58574 6.41429C9.63814 6.91619 9.66668 7.44753 9.66668 7.99999C9.66668 8.55246 9.63814 9.08379 9.58574 9.58573C9.08381 9.63813 8.55248 9.66666 8.00001 9.66666C7.44754 9.66666 6.91621 9.63813 6.41431 9.58573C6.36186 9.08379 6.33334 8.55246 6.33334 7.99999C6.33334 7.44753 6.36186 6.91619 6.41431 6.41429C6.91621 6.36185 7.44754 6.33333 8.00001 6.33333C8.55248 6.33333 9.08381 6.36185 9.58574 6.41429ZM9.44001 5.3957C9.31794 4.73317 9.15228 4.14523 8.95714 3.65734C8.74374 3.12385 8.51468 2.75923 8.31141 2.54433C8.11161 2.33307 8.00614 2.33331 8.00014 2.33333C7.99408 2.33331 7.88841 2.33307 7.68861 2.54433C7.48534 2.75923 7.25628 3.12385 7.04288 3.65734C6.84774 4.14523 6.68208 4.73317 6.56001 5.3957C7.02374 5.35485 7.50561 5.33333 8.00001 5.33333C8.49441 5.33333 8.97628 5.35485 9.44001 5.3957ZM5.39571 6.55999C4.73319 6.68206 4.14525 6.84773 3.65736 7.04286C3.12386 7.25626 2.75924 7.48533 2.54435 7.68859C2.33308 7.88839 2.33333 7.99386 2.33334 7.99986C2.33333 8.00593 2.33308 8.11159 2.54435 8.31139C2.75924 8.51466 3.12386 8.74373 3.65736 8.95713C4.14525 9.15226 4.73319 9.31793 5.39571 9.43999C5.35487 8.97626 5.33334 8.49439 5.33334 7.99999C5.33334 7.50559 5.35487 7.02373 5.39571 6.55999Z" fill="#515151"/>
</svg>
