<svg width="16" height="16" viewBox="0 0 16 16" fill="none" xmlns="http://www.w3.org/2000/svg">
<path fill-rule="evenodd" clip-rule="evenodd" d="M5.13432 3.26667L2.42766 7.95474C2.36811 8.05787 2.36811 8.18494 2.42766 8.28807L5.13432 12.9762C5.19387 13.0793 5.30391 13.1429 5.423 13.1429H10.8363C10.9554 13.1429 11.0655 13.0793 11.125 12.9762L13.8317 8.28807C13.8912 8.18494 13.8912 8.05787 13.8317 7.95474L11.125 3.26667C11.0655 3.16354 10.9554 3.10001 10.8363 3.10001H5.423C5.30391 3.10001 5.19387 3.16354 5.13432 3.26667ZM1.56163 7.45474C1.32345 7.86727 1.32345 8.37554 1.56163 8.78807L4.2683 13.4762C4.50648 13.8887 4.94664 14.1429 5.423 14.1429H10.8363C11.3127 14.1429 11.7529 13.8887 11.9911 13.4762L14.6977 8.78807C14.9359 8.37554 14.9359 7.86727 14.6977 7.45474L11.9911 2.76667C11.7529 2.35414 11.3127 2.10001 10.8363 2.10001H5.423C4.94664 2.10001 4.50648 2.35414 4.2683 2.76667L1.56163 7.45474Z" fill="#515151"/>
<path fill-rule="evenodd" clip-rule="evenodd" d="M4.73334 8.1236C4.73334 7.84746 4.95719 7.6236 5.23334 7.6236H10.8997C11.1758 7.6236 11.3997 7.84746 11.3997 8.1236C11.3997 8.39973 11.1758 8.6236 10.8997 8.6236H5.23334C4.95719 8.6236 4.73334 8.39973 4.73334 8.1236Z" fill="#515151"/>
<path fill-rule="evenodd" clip-rule="evenodd" d="M8.06653 4.79041C8.34266 4.79041 8.56653 5.01426 8.56653 5.29041V10.9567C8.56653 11.2329 8.34266 11.4567 8.06653 11.4567C7.79033 11.4567 7.56653 11.2329 7.56653 10.9567V5.29041C7.56653 5.01426 7.79033 4.79041 8.06653 4.79041Z" fill="#515151"/>
</svg>
