<svg width="16" height="16" viewBox="0 0 16 16" fill="none" xmlns="http://www.w3.org/2000/svg">
<path fill-rule="evenodd" clip-rule="evenodd" d="M1.33402 4.98169C1.26647 4.49151 1.49221 3.9704 2.01249 3.70647L7.20901 1.37685C7.58961 1.18376 8.04608 1.18562 8.42841 1.38181L14.0559 3.71019C14.6678 4.02417 14.6674 4.46848 14.6667 5.21608V5.29288V10.648C14.6717 11.1015 14.4292 11.524 14.0282 11.7603L8.43474 14.5837C8.37974 14.6162 8.32281 14.6399 8.26521 14.6555C8.07381 14.7527 7.83381 14.7623 7.61928 14.6414L1.99942 11.7443C1.59452 11.5161 1.34354 11.0994 1.33848 10.6469L1.33335 5.04087C1.33313 5.02101 1.33336 5.00127 1.33402 4.98169ZM2.47342 4.54336L7.66994 2.21374C7.76508 2.16547 7.87921 2.16593 7.97474 2.21498L13.6023 4.54336C13.8345 4.66251 13.8359 4.9828 13.6047 5.10005L8.00001 7.37687C7.90488 7.42513 7.79074 7.42467 7.69514 7.3756L2.47585 5.10005C2.24368 4.98091 2.24228 4.66062 2.47342 4.54336ZM2.20728 6.01019H2.18858L2.34234 6.08131L2.33842 10.6364C2.33968 10.7495 2.40243 10.8537 2.50366 10.9108L7.41421 13.4081L7.37161 8.267C7.32748 8.25 7.28401 8.2306 7.24154 8.2088L2.20728 6.01019ZM8.53908 8.17533L8.60961 13.3529L13.5071 10.9365C13.6073 10.8775 13.6679 10.7718 13.6667 10.6585L13.6667 6.13313L8.53908 8.17533ZM3.45374 8.15327C3.57723 7.90627 3.87757 7.80613 4.12456 7.92967L5.45789 8.59633C5.70488 8.7198 5.80499 9.02013 5.6815 9.26713C5.55801 9.51413 5.25767 9.6142 5.01068 9.49073L3.67734 8.82407C3.43036 8.7006 3.33024 8.40027 3.45374 8.15327Z" fill="#515151"/>
</svg>
