<?xml version="1.0" encoding="UTF-8" standalone="no"?>
<svg
   xmlns:dc="http://purl.org/dc/elements/1.1/"
   xmlns:cc="http://creativecommons.org/ns#"
   xmlns:rdf="http://www.w3.org/1999/02/22-rdf-syntax-ns#"
   xmlns:svg="http://www.w3.org/2000/svg"
   xmlns="http://www.w3.org/2000/svg"
   xmlns:sodipodi="http://sodipodi.sourceforge.net/DTD/sodipodi-0.dtd"
   xmlns:inkscape="http://www.inkscape.org/namespaces/inkscape"
   t="1618230665710"
   class="icon"
   viewBox="0 0 81.92 81.92"
   version="1.1"
   p-id="3737"
   width="16"
   height="16"
   id="svg12"
   sodipodi:docname="command_addDevice.svg"
   inkscape:version="1.0.1 (3bc2e813f5, 2020-09-07)">
  <metadata
     id="metadata16">
    <rdf:RDF>
      <cc:Work
         rdf:about="">
        <dc:format>image/svg+xml</dc:format>
        <dc:type
           rdf:resource="http://purl.org/dc/dcmitype/StillImage" />
        <dc:title></dc:title>
      </cc:Work>
    </rdf:RDF>
  </metadata>
  <sodipodi:namedview
     pagecolor="#ffffff"
     bordercolor="#666666"
     borderopacity="1"
     objecttolerance="10"
     gridtolerance="10"
     guidetolerance="10"
     inkscape:pageopacity="0"
     inkscape:pageshadow="2"
     inkscape:window-width="1920"
     inkscape:window-height="1001"
     id="namedview14"
     showgrid="false"
     inkscape:zoom="5.1972348"
     inkscape:cx="26.584225"
     inkscape:cy="0.81832484"
     inkscape:window-x="-9"
     inkscape:window-y="-9"
     inkscape:window-maximized="1"
     inkscape:current-layer="svg12" />
  <defs
     id="defs4">
    <style
       type="text/css"
       id="style2" />
  </defs>
  <path
     d="m 25.156968,21.698292 m -5.801033,0 a 5.8010331,5.8010331 0 1 0 11.602066,0 5.8010331,5.8010331 0 1 0 -11.602066,0 z"
     p-id="3738"
     fill="#515151"
     id="path6"
     style="stroke-width:0.0802849" />
  <path
     d="m 53.890208,71.686878 c -0.407884,-0.362571 -0.77045,-0.861093 -1.268974,-4.577379 h 7.070004 c -5.030582,-3.761608 -8.24834,-9.74392 -8.24834,-16.496685 0,-0.04534 0,-0.04534 0,-0.09064 H 11.832721 c 3.942889,-3.716295 8.474946,-8.384307 9.834564,-9.109437 5.936993,-3.036479 9.336036,2.673909 9.743921,3.625645 0.135962,0.317247 5.665075,-11.692709 14.910469,-10.106486 2.764555,0.317241 5.755711,1.722181 8.928149,3.761602 0.86109,-1.223651 1.812826,-2.311344 2.945837,-3.308403 -4.350774,-2.809872 -8.565587,-4.939933 -11.828666,-5.302499 -12.009951,-1.223658 -15.09175,9.290715 -15.227712,8.973475 -0.453205,-1.812828 -3.036478,-6.254242 -9.743921,-2.583274 -1.994106,1.042368 -9.789244,8.203016 -14.3666212,12.463154 V 14.311033 c 0,-0.725128 0.5891678,-1.268968 1.2689759,-1.268968 H 74.964274 c 0.725128,0 1.268976,0.589163 1.268976,1.268968 v 16.088804 c 1.767497,0.362565 3.444359,0.951734 5.030582,1.722187 v -17.13118 c 0,-3.580325 -2.855198,-6.4808392 -6.435524,-6.4808392 H 8.4336783 c -3.535004,0 -6.4355199,2.9005142 -6.4355199,6.4355162 v 45.728454 c 0,3.535002 2.9005159,6.435524 6.4355199,6.435524 H 30.822038 c -0.04531,0.362565 -0.09064,0.725129 -0.181281,1.133011 -0.271923,1.178342 -0.725128,2.809881 -0.906412,2.900522 -0.135961,0.09064 -0.362563,0.498523 -0.453205,0.589163 -0.543846,0.49853 -0.906412,1.268976 -0.906412,2.13007 0,1.586215 1.223656,2.855198 2.673914,2.855198 h 21.119385 c 1.495578,0 2.673915,-1.268983 2.673915,-2.855198 0,-0.770454 -0.271926,-1.450258 -0.77045,-1.994104 -0.04532,-0.09064 -0.135964,-0.135966 -0.181284,-0.181283 z"
     p-id="3739"
     fill="#515151"
     id="path8"
     style="stroke-width:0.0802849" />
  <path
     d="m 80.901268,51.881789 c 0,0.181282 -0.09065,0.271924 -0.271924,0.271924 h -9.245397 v 9.245391 c 0,0.181288 -0.09064,0.27193 -0.271923,0.27193 H 66.98785 c -0.181282,0 -0.271915,-0.09065 -0.271915,-0.27193 v -9.245391 h -9.245404 c -0.181281,0 -0.271921,-0.09064 -0.271921,-0.271924 v -4.124172 c 0,-0.181283 0.09064,-0.271924 0.271921,-0.271924 h 9.245404 l -8e-6,-9.200074 c 0,-0.181282 0.09064,-0.271924 0.271923,-0.271924 h 4.124174 c 0.181282,0 0.271923,0.09064 0.271923,0.271924 v 9.245398 h 9.245397 c 0.181275,0 0.271924,0.09064 0.271924,0.271916 z"
     p-id="3740"
     fill="#515151"
     id="path10"
     style="stroke-width:0.0802849" />
</svg>
