<svg width="24" height="24" viewBox="0 0 24 24" fill="none" xmlns="http://www.w3.org/2000/svg">
<path d="M4 2.5C2.89542 2.5 2 3.39542 2 4.5V19.5C2 20.6046 2.89542 21.5 4 21.5H13.9483C13.89 21.438 13.8353 21.3719 13.7848 21.3022C13.7447 21.2468 13.7072 21.1891 13.6726 21.1292L13.0207 20H4C3.72385 20 3.5 19.7762 3.5 19.5V15.4573C3.57819 15.485 3.66235 15.5 3.75 15.5H11.5773L12.4434 14H3.75C3.66235 14 3.57819 14.015 3.5 14.0427V4.5C3.5 4.22385 3.72385 4 4 4H20C20.2762 4 20.5 4.22385 20.5 4.5V11.0872C20.8403 11.2598 21.13 11.5291 21.3273 11.8708L22 13.0359V4.5C22 3.39542 21.1046 2.5 20 2.5H4Z" fill="#515151"/>
<path d="M5 7.25C5 6.83578 5.33578 6.5 5.75 6.5H18.25C18.6642 6.5 19 6.83578 19 7.25C19 7.66422 18.6642 8 18.25 8H5.75C5.33578 8 5 7.66422 5 7.25Z" fill="#515151"/>
<path d="M5.75 9.5C5.33578 9.5 5 9.83578 5 10.25C5 10.6642 5.33578 11 5.75 11H8.25C8.66422 11 9 10.6642 9 10.25C9 9.83578 8.66422 9.5 8.25 9.5H5.75Z" fill="#515151"/>
<path d="M23.4226 14.5C23.7799 15.1188 23.7799 15.8812 23.4226 16.5L20.8273 20.9952C20.4701 21.614 19.8098 21.9952 19.0953 21.9952L13.9047 21.9952C13.1902 21.9952 12.5299 21.614 12.1726 20.9952L9.57735 16.5C9.22008 15.8812 9.22008 15.1188 9.57735 14.5L12.1726 10.0048C12.5299 9.38602 13.1902 9.00482 13.9047 9.00482L19.0953 9.00482C19.8098 9.00482 20.4701 9.38602 20.8273 10.0048L23.4226 14.5Z" fill="#E5E5E5"/>
<path fill-rule="evenodd" clip-rule="evenodd" d="M19.5283 20.2452L22.1236 15.75C22.2129 15.5953 22.2129 15.4047 22.1236 15.25L19.5283 10.7548C19.439 10.6001 19.2739 10.5048 19.0953 10.5048L13.9047 10.5048C13.7261 10.5048 13.561 10.6001 13.4717 10.7548L10.8764 15.25C10.7871 15.4047 10.7871 15.5953 10.8764 15.75L13.4717 20.2452C13.561 20.3999 13.7261 20.4952 13.9047 20.4952L19.0953 20.4952C19.2739 20.4952 19.439 20.3999 19.5283 20.2452ZM23.4226 16.5C23.7799 15.8812 23.7799 15.1188 23.4226 14.5L20.8273 10.0048C20.4701 9.38602 19.8098 9.00482 19.0953 9.00482L13.9047 9.00482C13.1902 9.00482 12.5299 9.38602 12.1726 10.0048L9.57735 14.5C9.22008 15.1188 9.22008 15.8812 9.57735 16.5L12.1726 20.9952C12.5299 21.614 13.1902 21.9952 13.9047 21.9952L19.0953 21.9952C19.8098 21.9952 20.4701 21.614 20.8273 20.9952L23.4226 16.5Z" fill="#515151"/>
<path fill-rule="evenodd" clip-rule="evenodd" d="M15.75 18.25C15.75 18.6642 16.0858 19 16.5 19C16.9142 19 17.25 18.6642 17.25 18.25V16.25H19.25C19.6642 16.25 20 15.9142 20 15.5C20 15.0858 19.6642 14.75 19.25 14.75H17.25V12.75C17.25 12.3358 16.9142 12 16.5 12C16.0858 12 15.75 12.3358 15.75 12.75V14.75H13.75C13.3358 14.75 13 15.0858 13 15.5C13 15.9142 13.3358 16.25 13.75 16.25H15.75V18.25Z" fill="#515151"/>
</svg>
