<?xml version="1.0" standalone="no"?><!DOCTYPE svg PUBLIC "-//W3C//DTD SVG 1.1//EN" "http://www.w3.org/Graphics/SVG/1.1/DTD/svg11.dtd"><svg t="1618230665710" class="icon" viewBox="0 0 1024 1024" version="1.1" xmlns="http://www.w3.org/2000/svg" p-id="3737" xmlns:xlink="http://www.w3.org/1999/xlink" width="200" height="200"><defs><style type="text/css"></style></defs><path d="M303.135612 262.491731m-72.255788 0a12.8 12.8 0 1 0 144.511577 0 12.8 12.8 0 1 0-144.511577 0Z" p-id="3738" fill="#515151"></path><path d="M661.027563 885.133407c-5.080485-4.515987-9.596472-10.725469-15.805954-57.014333l88.061742 0c-62.659316-46.853363-102.738699-121.367144-102.738699-205.477398 0-0.564498 0-0.564498 0-1.128997L137.173098 621.512679C186.284454 575.223815 242.734289 517.080485 259.669239 508.048512c73.949283-37.821389 116.286659 33.305402 121.367144 45.159868 1.693495 3.951488 70.562293-145.640573 185.719956-125.883131 34.434399 3.951488 71.69129 21.450937 111.206174 46.853363 10.725469-15.241455 22.579934-28.789416 36.692393-41.208379-54.191841-34.998897-106.690187-61.53032-147.334068-66.046307-149.592062-15.241455-187.977949 115.722161-189.671444 111.770673-5.644983-22.579934-37.821389-77.900772-121.367144-32.176406-24.837927 12.983462-121.931643 102.174201-178.945976 155.237045L77.336273 170.478501c0-9.031974 7.338479-15.805954 15.805954-15.805954l830.377067 0c9.031974 0 15.805954 7.338479 15.805954 15.805954l0 200.396913c22.015436 4.515987 42.901874 11.854465 62.659316 21.450937L1001.984564 178.945976c0-44.595369-35.563396-80.723264-80.158765-80.723264L94.835722 98.222712C50.804851 98.222712 14.676957 134.350606 14.676957 178.381477l0 569.578831c0 44.030871 36.127894 80.158765 80.158765 80.158765l278.862183 0c-0.564498 4.515987-1.128997 9.031974-2.257993 14.112459-3.38699 14.676957-9.031974 34.998897-11.289967 36.127894-1.693495 1.128997-4.515987 6.209482-5.644983 7.338479-6.77398 6.209482-11.289967 15.805954-11.289967 26.531422 0 19.757442 15.241455 35.563396 33.305402 35.563396l263.056229 0c18.628445 0 33.305402-15.805954 33.305402-35.563396 0-9.596472-3.38699-18.063947-9.596472-24.837927C662.721058 886.262404 661.592062 885.697905 661.027563 885.133407z" p-id="3739" fill="#515151"></path><path d="M997.468578 638.44763c0 2.257993-1.128997 3.38699-3.38699 3.38699l-115.157663 0 0 115.157663c0 2.257993-1.128997 3.38699-3.38699 3.38699L824.167585 760.379272c-2.257993 0-3.38699-1.128997-3.38699-3.38699l0-115.157663L705.622933 641.83462c-2.257993 0-3.38699-1.128997-3.38699-3.38699l0-51.36935c0-2.257993 1.128997-3.38699 3.38699-3.38699l115.157663 0L820.780595 469.098126c0-2.257993 1.128997-3.38699 3.38699-3.38699l51.36935 0c2.257993 0 3.38699 1.128997 3.38699 3.38699l0 115.157663 115.157663 0c2.257993 0 3.38699 1.128997 3.38699 3.38699L997.468578 638.44763z" p-id="3740" fill="#515151"></path></svg>