<svg width="24" height="24" viewBox="0 0 24 24" fill="none" xmlns="http://www.w3.org/2000/svg">
<path fill-rule="evenodd" clip-rule="evenodd" d="M12 20.5C16.6944 20.5 20.5 16.6944 20.5 12C20.5 7.30558 16.6944 3.5 12 3.5C7.30558 3.5 3.5 7.30558 3.5 12C3.5 16.6944 7.30558 20.5 12 20.5ZM12 22C17.5228 22 22 17.5228 22 12C22 6.47715 17.5228 2 12 2C6.47715 2 2 6.47715 2 12C2 17.5228 6.47715 22 12 22Z" fill="#515151"/>
<path fill-rule="evenodd" clip-rule="evenodd" d="M14.16 15.9064C13.9769 16.9002 13.7284 17.7821 13.4357 18.514C13.1156 19.3142 12.772 19.8611 12.4671 20.1835C12.1674 20.5004 12.0089 20.5 11.9998 20.5C11.9908 20.5 11.8326 20.5004 11.5329 20.1835C11.228 19.8611 10.8844 19.3142 10.5643 18.514C10.2716 17.7821 10.0231 16.9002 9.84 15.9064C10.5356 15.9677 11.2584 16 12 16C12.7416 16 13.4644 15.9677 14.16 15.9064ZM15.7149 15.7149C15.125 19.3983 13.684 22 12 22C10.316 22 8.87498 19.3983 8.28511 15.7149C4.60173 15.125 2 13.684 2 12C2 10.316 4.60173 8.87498 8.28511 8.28511C8.87498 4.60173 10.316 2 12 2C13.684 2 15.125 4.60173 15.7149 8.28511C19.3983 8.87498 22 10.316 22 12C22 13.684 19.3983 15.125 15.7149 15.7149ZM15.9064 9.84C16.9002 10.0231 17.7821 10.2716 18.514 10.5643C19.3142 10.8844 19.8611 11.228 20.1835 11.5329C20.5004 11.8326 20.5 11.9911 20.5 12.0002C20.5 12.0092 20.5004 12.1674 20.1835 12.4671C19.8611 12.772 19.3142 13.1156 18.514 13.4357C17.7821 13.7284 16.9002 13.9769 15.9064 14.16C15.9677 13.4644 16 12.7416 16 12C16 11.2584 15.9677 10.5356 15.9064 9.84ZM14.3786 9.62145C14.4572 10.3743 14.5 11.1713 14.5 12C14.5 12.8287 14.4572 13.6257 14.3786 14.3786C13.6257 14.4572 12.8287 14.5 12 14.5C11.1713 14.5 10.3743 14.4572 9.62145 14.3786C9.54278 13.6257 9.5 12.8287 9.5 12C9.5 11.1713 9.54278 10.3743 9.62145 9.62145C10.3743 9.54278 11.1713 9.5 12 9.5C12.8287 9.5 13.6257 9.54278 14.3786 9.62145ZM14.16 8.09356C13.9769 7.09977 13.7284 6.21786 13.4357 5.48602C13.1156 4.68578 12.772 4.13885 12.4671 3.81651C12.1674 3.49961 12.0092 3.49998 12.0002 3.5C11.9911 3.49998 11.8326 3.49961 11.5329 3.81651C11.228 4.13885 10.8844 4.68578 10.5643 5.48602C10.2716 6.21786 10.0231 7.09977 9.84 8.09356C10.5356 8.03229 11.2584 8 12 8C12.7416 8 13.4644 8.03229 14.16 8.09356ZM8.09355 9.84C7.09977 10.0231 6.21786 10.2716 5.48602 10.5643C4.68578 10.8844 4.13885 11.228 3.81651 11.5329C3.4996 11.8326 3.49998 11.9908 3.5 11.9998C3.49998 12.0089 3.4996 12.1674 3.81651 12.4671C4.13885 12.772 4.68578 13.1156 5.48602 13.4357C6.21786 13.7284 7.09977 13.9769 8.09355 14.16C8.03229 13.4644 8 12.7416 8 12C8 11.2584 8.03229 10.5356 8.09355 9.84Z" fill="#515151"/>
</svg>
