<svg width="16" height="16" viewBox="0 0 16 16" fill="none" xmlns="http://www.w3.org/2000/svg">
<path fill-rule="evenodd" clip-rule="evenodd" d="M12.6197 2.66667H3.38023C3.26877 2.66667 3.1647 2.72237 3.10287 2.81511L2.53517 3.66667H13.4648L12.8971 2.81511C12.8352 2.72237 12.7312 2.66667 12.6197 2.66667ZM2.33331 13V4.66667H13.6666V13C13.6666 13.1841 13.5174 13.3333 13.3333 13.3333H2.66665C2.48255 13.3333 2.33331 13.1841 2.33331 13ZM3.38023 1.66667C2.93442 1.66667 2.51811 1.88947 2.27083 2.26041L1.55725 3.33077C1.41123 3.5498 1.33331 3.80714 1.33331 4.07037V13C1.33331 13.7364 1.93027 14.3333 2.66665 14.3333H13.3333C14.0697 14.3333 14.6666 13.7364 14.6666 13V4.07037C14.6666 3.80714 14.5887 3.5498 14.4427 3.33077L13.7291 2.26041C13.4818 1.88947 13.0655 1.66667 12.6197 1.66667H3.38023ZM7.80391 7.1496C7.87538 6.88287 8.14951 6.72461 8.41625 6.79607C8.68298 6.86754 8.84131 7.14174 8.76985 7.40847L7.99691 10.293C7.92545 10.5597 7.65125 10.718 7.38451 10.6465C7.11778 10.5751 6.95951 10.3009 7.03098 10.0342L7.80391 7.1496ZM5.97703 7.74694C6.17229 7.55167 6.17229 7.23507 5.97703 7.03981C5.78177 6.84454 5.46519 6.84454 5.26993 7.03981L3.91309 8.39667C3.71783 8.59194 3.71783 8.90854 3.91309 9.10381L5.26993 10.4606C5.46519 10.6559 5.78177 10.6559 5.97703 10.4606C6.17229 10.2653 6.17229 9.94881 5.97703 9.75354L4.97375 8.75021L5.97703 7.74694ZM9.88958 7.74694C9.69431 7.55167 9.69431 7.23507 9.88958 7.03981C10.0848 6.84454 10.4014 6.84454 10.5967 7.03981L11.9535 8.39667C12.1488 8.59194 12.1488 8.90854 11.9535 9.10381L10.5967 10.4606C10.4014 10.6559 10.0848 10.6559 9.88958 10.4606C9.69431 10.2653 9.69431 9.94881 9.88958 9.75354L10.8929 8.75021L9.88958 7.74694Z" fill="#515151"/>
</svg>
