<svg width="24" height="24" viewBox="0 0 24 24" fill="none" xmlns="http://www.w3.org/2000/svg">
<path fill-rule="evenodd" clip-rule="evenodd" d="M6.75 8.75C6.75 5.85051 9.1005 3.5 12 3.5C14.8995 3.5 17.25 5.85051 17.25 8.75C17.25 9.16421 17.5858 9.5 18 9.5C18.4142 9.5 18.75 9.16421 18.75 8.75C18.75 5.02208 15.7279 2 12 2C8.27208 2 5.25 5.02208 5.25 8.75C5.25 9.16421 5.58579 9.5 6 9.5C6.41421 9.5 6.75 9.16421 6.75 8.75ZM9.75 8.75C9.75 7.50736 10.7574 6.5 12 6.5C13.2426 6.5 14.25 7.50736 14.25 8.75C14.25 9.16421 14.5858 9.5 15 9.5C15.4142 9.5 15.75 9.16421 15.75 8.75C15.75 6.67893 14.0711 5 12 5C9.92893 5 8.25 6.67893 8.25 8.75C8.25 9.16421 8.58579 9.5 9 9.5C9.41421 9.5 9.75 9.16421 9.75 8.75ZM11.25 9.75C11.25 9.33579 11.5858 9 12 9C12.4142 9 12.75 9.33579 12.75 9.75V13H20C21.1046 13 22 13.8954 22 15V19.5C22 20.6046 21.1046 21.5 20 21.5H4C2.89543 21.5 2 20.6046 2 19.5V15C2 13.8954 2.89543 13 4 13H11.25V9.75ZM4 14.5C3.72386 14.5 3.5 14.7239 3.5 15V19.5C3.5 19.7761 3.72386 20 4 20H20C20.2761 20 20.5 19.7761 20.5 19.5V15C20.5 14.7239 20.2761 14.5 20 14.5H4ZM6.5 17.25C6.5 17.6642 6.16421 18 5.75 18C5.33579 18 5 17.6642 5 17.25C5 16.8358 5.33579 16.5 5.75 16.5C6.16421 16.5 6.5 16.8358 6.5 17.25ZM9.25 18C9.66421 18 10 17.6642 10 17.25C10 16.8358 9.66421 16.5 9.25 16.5C8.83579 16.5 8.5 16.8358 8.5 17.25C8.5 17.6642 8.83579 18 9.25 18Z" fill="#515151"/>
</svg>
