<svg width="16" height="16" viewBox="0 0 16 16" fill="none" xmlns="http://www.w3.org/2000/svg">
<g clip-path="url(#clip0_2_63)">
<path d="M2.66668 1.66666C1.93029 1.66666 1.33334 2.26361 1.33334 3V13C1.33334 13.7364 1.93029 14.3333 2.66668 14.3333H9.29888C9.26001 14.292 9.22354 14.2479 9.18988 14.2015C9.16314 14.1645 9.13814 14.1261 9.11508 14.0861L8.68048 13.3333H2.66668C2.48258 13.3333 2.33334 13.1841 2.33334 13V10.3049C2.38547 10.3233 2.44158 10.3333 2.50001 10.3333H7.71821L8.29561 9.33333H2.50001C2.44158 9.33333 2.38547 9.34333 2.33334 9.3618V3C2.33334 2.8159 2.48258 2.66666 2.66668 2.66666H13.3333C13.5175 2.66666 13.6667 2.8159 13.6667 3V7.39146C13.8935 7.50653 14.0867 7.68606 14.2182 7.91386L14.6667 8.6906V3C14.6667 2.26361 14.0697 1.66666 13.3333 1.66666H2.66668Z" fill="#515151"/>
<path d="M14.3415 13.8727C14.4515 13.7456 14.538 13.5975 14.5941 13.4351L14.3415 13.8727Z" fill="#515151"/>
<path d="M3.33334 4.83334C3.33334 4.55719 3.5572 4.33334 3.83334 4.33334H12.1667C12.4428 4.33334 12.6667 4.55719 12.6667 4.83334C12.6667 5.10948 12.4428 5.33334 12.1667 5.33334H3.83334C3.5572 5.33334 3.33334 5.10948 3.33334 4.83334Z" fill="#515151"/>
<path d="M3.83334 6.33334C3.5572 6.33334 3.33334 6.55719 3.33334 6.83334C3.33334 7.10947 3.5572 7.33334 3.83334 7.33334H5.50001C5.77616 7.33334 6.00001 7.10947 6.00001 6.83334C6.00001 6.55719 5.77616 6.33334 5.50001 6.33334H3.83334Z" fill="#515151"/>
<path fill-rule="evenodd" clip-rule="evenodd" d="M9.76879 11.022C9.64372 10.8021 9.64372 10.5313 9.76879 10.3114L10.4146 9.1758C10.5397 8.95593 10.7707 8.82053 11.0208 8.82053H12.3125C12.5626 8.82053 12.7937 8.95593 12.9187 9.1758L13.5645 10.3114C13.6896 10.5313 13.6896 10.8021 13.5645 11.022L12.9187 12.1575C12.7937 12.3774 12.5626 12.5129 12.3125 12.5129H11.0208C10.7707 12.5129 10.5397 12.3774 10.4146 12.1575L9.76879 11.022ZM11.2229 11.4469L10.7791 10.6667L11.2229 9.8864H12.1105L12.5542 10.6667L12.1105 11.4469H11.2229Z" fill="#515151"/>
<path fill-rule="evenodd" clip-rule="evenodd" d="M7.52086 11.3773C7.2708 10.9375 7.2708 10.3958 7.52086 9.95606L8.9876 7.37726C9.23766 6.93753 9.6998 6.66666 10.2 6.66666H13.1333C13.6335 6.66666 14.0957 6.93753 14.3457 7.37726L15.8125 9.95606C16.0625 10.3958 16.0625 10.9375 15.8125 11.3773L14.3457 13.9561C14.0957 14.3958 13.6335 14.6667 13.1333 14.6667H10.2C9.6998 14.6667 9.23766 14.3958 8.9876 13.9561L7.52086 11.3773ZM8.4302 10.489L9.89686 7.9102C9.9594 7.80026 10.0749 7.73253 10.2 7.73253H13.1333C13.2584 7.73253 13.3739 7.80026 13.4365 7.9102L14.9031 10.489C14.9657 10.5989 14.9657 10.7344 14.9031 10.8443L13.4365 13.4231C13.3739 13.5331 13.2584 13.6008 13.1333 13.6008H10.2C10.0749 13.6008 9.9594 13.5331 9.89686 13.4231L8.4302 10.8443C8.36766 10.7344 8.36766 10.5989 8.4302 10.489Z" fill="#515151"/>
</g>
<defs>
<clipPath id="clip0_2_63">
<rect width="16" height="16" fill="white"/>
</clipPath>
</defs>
</svg>
