<svg width="24" height="24" viewBox="0 0 24 24" fill="none" xmlns="http://www.w3.org/2000/svg">
<path fill-rule="evenodd" clip-rule="evenodd" d="M2.25 5C2.25 3.48122 3.48122 2.25 5 2.25H8C9.51878 2.25 10.75 3.48122 10.75 5V7.66667C10.75 8.08088 10.4142 8.41667 10 8.41667C9.58579 8.41667 9.25 8.08088 9.25 7.66667V5C9.25 4.30964 8.69036 3.75 8 3.75H5C4.30964 3.75 3.75 4.30964 3.75 5V8C3.75 8.69036 4.30965 9.25 5 9.25H6.88889C7.3031 9.25 7.63889 9.58579 7.63889 10C7.63889 10.4142 7.3031 10.75 6.88889 10.75H5C3.48122 10.75 2.25 9.51878 2.25 8V5ZM2.25 19C2.25 20.5188 3.48122 21.75 5 21.75H8C9.51878 21.75 10.75 20.5188 10.75 19V16.3333C10.75 15.9191 10.4142 15.5833 10 15.5833C9.58579 15.5833 9.25 15.9191 9.25 16.3333V19C9.25 19.6904 8.69036 20.25 8 20.25H5C4.30964 20.25 3.75 19.6904 3.75 19V16C3.75 15.3096 4.30965 14.75 5 14.75H6.88889C7.3031 14.75 7.63889 14.4142 7.63889 14C7.63889 13.5858 7.3031 13.25 6.88889 13.25H5C3.48122 13.25 2.25 14.4812 2.25 16V19ZM19 2.25C20.5188 2.25 21.75 3.48122 21.75 5V8C21.75 9.51878 20.5188 10.75 19 10.75H17.1111C16.6969 10.75 16.3611 10.4142 16.3611 10C16.3611 9.58579 16.6969 9.25 17.1111 9.25H19C19.6904 9.25 20.25 8.69036 20.25 8V5C20.25 4.30964 19.6904 3.75 19 3.75H16C15.3096 3.75 14.75 4.30964 14.75 5V7.66667C14.75 8.08088 14.4142 8.41667 14 8.41667C13.5858 8.41667 13.25 8.08088 13.25 7.66667V5C13.25 3.48122 14.4812 2.25 16 2.25H19ZM21.75 19C21.75 20.5188 20.5188 21.75 19 21.75H16C14.4812 21.75 13.25 20.5188 13.25 19V16.3333C13.25 15.9191 13.5858 15.5833 14 15.5833C14.4142 15.5833 14.75 15.9191 14.75 16.3333V19C14.75 19.6904 15.3096 20.25 16 20.25H19C19.6904 20.25 20.25 19.6904 20.25 19V16C20.25 15.3096 19.6904 14.75 19 14.75H17.1111C16.6969 14.75 16.3611 14.4142 16.3611 14C16.3611 13.5858 16.6969 13.25 17.1111 13.25H19C20.5188 13.25 21.75 14.4812 21.75 16V19ZM12 13.5C11.1716 13.5 10.5 12.8284 10.5 12C10.5 11.1716 11.1716 10.5 12 10.5C12.8284 10.5 13.5 11.1716 13.5 12C13.5 12.8284 12.8284 13.5 12 13.5ZM9 12C9 10.3431 10.3431 9 12 9C13.6569 9 15 10.3431 15 12C15 13.6569 13.6569 15 12 15C10.3431 15 9 13.6569 9 12Z" fill="#515151"/>
</svg>
