<svg width="16" height="16" viewBox="0 0 16 16" fill="none" xmlns="http://www.w3.org/2000/svg">
<path fill-rule="evenodd" clip-rule="evenodd" d="M4.50001 5.83334C4.50001 3.90034 6.06701 2.33334 8.00001 2.33334C9.93301 2.33334 11.5 3.90034 11.5 5.83334C11.5 6.10948 11.7239 6.33334 12 6.33334C12.2761 6.33334 12.5 6.10948 12.5 5.83334C12.5 3.34806 10.4853 1.33334 8.00001 1.33334C5.51473 1.33334 3.50001 3.34806 3.50001 5.83334C3.50001 6.10948 3.72387 6.33334 4.00001 6.33334C4.27615 6.33334 4.50001 6.10948 4.50001 5.83334ZM6.50001 5.83334C6.50001 5.00491 7.17161 4.33334 8.00001 4.33334C8.82841 4.33334 9.50001 5.00491 9.50001 5.83334C9.50001 6.10948 9.72388 6.33334 10 6.33334C10.2761 6.33334 10.5 6.10948 10.5 5.83334C10.5 4.45262 9.38074 3.33334 8.00001 3.33334C6.6193 3.33334 5.50001 4.45262 5.50001 5.83334C5.50001 6.10948 5.72387 6.33334 6.00001 6.33334C6.27615 6.33334 6.50001 6.10948 6.50001 5.83334ZM7.50001 6.5C7.50001 6.22386 7.72388 6 8.00001 6C8.27614 6 8.50001 6.22386 8.50001 6.5V8.66667H13.3333C14.0697 8.66667 14.6667 9.2636 14.6667 10V13C14.6667 13.7364 14.0697 14.3333 13.3333 14.3333H2.66668C1.9303 14.3333 1.33334 13.7364 1.33334 13V10C1.33334 9.2636 1.9303 8.66667 2.66668 8.66667H7.50001V6.5ZM2.66668 9.66667C2.48258 9.66667 2.33334 9.81594 2.33334 10V13C2.33334 13.1841 2.48258 13.3333 2.66668 13.3333H13.3333C13.5174 13.3333 13.6667 13.1841 13.6667 13V10C13.6667 9.81594 13.5174 9.66667 13.3333 9.66667H2.66668ZM4.33334 11.5C4.33334 11.7761 4.10948 12 3.83334 12C3.5572 12 3.33334 11.7761 3.33334 11.5C3.33334 11.2239 3.5572 11 3.83334 11C4.10948 11 4.33334 11.2239 4.33334 11.5ZM6.16668 12C6.44282 12 6.66668 11.7761 6.66668 11.5C6.66668 11.2239 6.44282 11 6.16668 11C5.89054 11 5.66668 11.2239 5.66668 11.5C5.66668 11.7761 5.89054 12 6.16668 12Z" fill="#515151"/>
</svg>
